<?xml version="1.0" encoding="utf-8"?>
<!-- Generator: Adobe Illustrator 19.2.1, SVG Export Plug-In . SVG Version: 6.00 Build 0)  -->
<svg version="1.1" id="Layer_1" xmlns="http://www.w3.org/2000/svg" xmlns:xlink="http://www.w3.org/1999/xlink" x="0px" y="0px"
	 viewBox="0 0 512 512" enable-background="new 0 0 512 512" xml:space="preserve">
<g>
	<g>
		<path fill="#666666" d="M268.4,266.1h-0.6v-23.1c0-0.3-0.3-0.6-0.6-0.6h-22.5c-0.3,0-0.6,0.3-0.6,0.6v23.1h-0.6
			c-0.3,0-0.6,0.3-0.6,0.6v2.3c0,0.3,0.3,0.6,0.6,0.6h24.7c0.3,0,0.6-0.3,0.6-0.6v-2.3C268.9,266.4,268.7,266.1,268.4,266.1z
			 M245.3,243.6h21.4v22.5h-1.1v-20.8c0-0.3-0.3-0.6-0.6-0.6h-18c-0.3,0-0.6,0.3-0.6,0.6v20.8h-1.1V243.6z M256.6,255.4v-9.6h7.9
			v9.6H256.6z M264.4,256.6v9.6h-7.9v-9.6H264.4z M247.6,255.4v-9.6h7.9v9.6H247.6z M255.4,256.6v9.6h-7.9v-9.6H255.4z M267.8,268.4
			h-23.6v-1.1h23.6V268.4z"/>
	</g>
</g>
</svg>
