<?xml version="1.0" encoding="utf-8"?>
<!-- Generator: Adobe Illustrator 21.0.0, SVG Export Plug-In . SVG Version: 6.00 Build 0)  -->
<svg version="1.1" id="Layer_1" xmlns="http://www.w3.org/2000/svg" xmlns:xlink="http://www.w3.org/1999/xlink" x="0px" y="0px"
	 viewBox="0 0 24.7 26" style="enable-background:new 0 0 24.7 26;" xml:space="preserve">
<style type="text/css">
	.st0{fill:#666666;}
</style>
<g>
	<g>
		<g>
			<path class="st0" d="M7.9,0.2c-0.3-0.3-0.7-0.3-1,0C4.9,2.7,0,9.2,0,12.5c0,4.1,3.3,7.4,7.4,7.4c4.1,0,7.4-3.3,7.4-7.4
				C14.8,9.2,9.9,2.7,7.9,0.2z M7.4,18.6c-3.4,0-6.1-2.7-6.1-6.1c0-2.6,4-8.3,6.1-10.9c2.1,2.6,6.1,8.3,6.1,10.9
				C13.5,15.9,10.8,18.6,7.4,18.6z"/>
			<path class="st0" d="M6.6,6.1C6.3,5.9,5.9,6,5.7,6.3c-1.3,2-2.2,3.6-2.7,4.9c-0.1,0.3,0,0.7,0.4,0.8c0.3,0.1,0.7,0,0.8-0.4
				c0.3-0.8,1-2.3,2.6-4.6C6.9,6.7,6.9,6.3,6.6,6.1z"/>
			<path class="st0" d="M6.3,15.9c-0.8-0.3-1.5-0.9-1.9-1.6c-0.2-0.3-0.6-0.4-0.9-0.2c-0.3,0.2-0.4,0.6-0.2,0.9
				c0.6,1,1.5,1.8,2.6,2.2c0.3,0.1,0.7-0.1,0.8-0.4C6.8,16.4,6.6,16,6.3,15.9z"/>
			<path class="st0" d="M20.2,12.8c-0.3-0.3-0.7-0.3-1,0c-0.5,0.6-4.5,5.6-4.5,8.2c0,2.8,2.3,5,5,5c2.8,0,5-2.3,5-5
				C24.7,18.4,20.6,13.4,20.2,12.8z M19.7,24.7C17.6,24.7,16,23,16,21c0-1.7,2.7-5.4,3.7-6.7c1,1.3,3.7,5.1,3.7,6.7
				C23.4,23,21.8,24.7,19.7,24.7z"/>
			<path class="st0" d="M18.9,17.8c-0.3-0.2-0.7-0.1-0.9,0.2c-0.8,1.3-1.1,2.1-1.2,2.6c-0.1,0.3,0.1,0.7,0.5,0.8
				c0.3,0.1,0.7-0.1,0.8-0.5c0.1-0.2,0.3-0.9,1.1-2.2C19.3,18.4,19.2,18,18.9,17.8z"/>
		</g>
	</g>
</g>
</svg>
