<?xml version="1.0" encoding="utf-8"?>
<!-- Generator: Adobe Illustrator 19.2.1, SVG Export Plug-In . SVG Version: 6.00 Build 0)  -->
<svg version="1.1" id="Layer_1" xmlns="http://www.w3.org/2000/svg" xmlns:xlink="http://www.w3.org/1999/xlink" x="0px" y="0px"
	 viewBox="0 0 295.2 295.2" enable-background="new 0 0 295.2 295.2" xml:space="preserve">
<g>
	<g>
		<path fill="#666666" d="M160.6,137.1v-2.5h-2.5v0.8h-21v-0.8h-2.5v2.5h0.8v21h-0.8v2.5h2.5v-0.8h21v0.8h2.5v-2.5h-0.8v-21H160.6z
			 M135.5,135.5h0.8v0.8h-0.8V135.5z M136.3,159.8h-0.8v-0.8h0.8V159.8z M136.3,158.1v-21h0.8v-0.8h21v0.8h-21v0.4v0.4v1.7v0.8v1.7
			v0.8v1.7v0.8v1.7v0.8v1.7v0.8v1.7v0.8v1.7v0.8v1.7v0.4v0.4H136.3z M155.6,154.7v-1.7h1.7v1.7H155.6z M157.3,155.6v1.7h-1.7v-1.7
			H157.3z M155.6,152.2v-1.7h1.7v1.7H155.6z M155.6,149.7V148h1.7v1.7H155.6z M155.6,147.2v-1.7h1.7v1.7H155.6z M155.6,144.7V143
			h1.7v1.7L155.6,144.7L155.6,144.7z M155.6,142.2v-1.7h1.7v1.7C157.3,142.2,155.6,142.2,155.6,142.2z M155.6,139.7V138h1.7v1.7
			L155.6,139.7L155.6,139.7z M153.1,154.7v-1.7h1.7v1.7H153.1z M154.7,155.6v1.7h-1.7v-1.7H154.7z M153.1,152.2v-1.7h1.7v1.7H153.1z
			 M153.1,149.7V148h1.7v1.7H153.1z M153.1,147.2L153.1,147.2v-1.7h1.7v1.7H153.1z M153.1,144.7V143h1.7v1.7L153.1,144.7
			L153.1,144.7z M153.1,142.2L153.1,142.2v-1.7h1.7v1.7H153.1z M153.1,139.7V138h1.7v1.7L153.1,139.7L153.1,139.7z M150.6,154.7
			v-1.7h1.7v1.7H150.6z M152.2,155.6v1.7h-1.7v-1.7H152.2z M150.6,152.2v-1.7h1.7v1.7H150.6z M150.6,149.7V148h1.7v1.7H150.6z
			 M150.6,147.2L150.6,147.2v-1.7h1.7v1.7H150.6z M150.6,144.7V143h1.7v1.7L150.6,144.7L150.6,144.7z M150.6,142.2L150.6,142.2v-1.7
			h1.7v1.7H150.6z M150.6,139.7V138h1.7v1.7L150.6,139.7L150.6,139.7z M148,154.7v-1.7h1.7v1.7H148z M149.7,155.6v1.7H148v-1.7
			H149.7z M148,152.2v-1.7h1.7v1.7H148z M148,149.7V148h1.7v1.7H148z M148,147.2L148,147.2v-1.7h1.7v1.7H148z M148,144.7V143h1.7
			v1.7L148,144.7L148,144.7z M148,142.2v-1.7h1.7v1.7C149.7,142.2,148,142.2,148,142.2z M148,139.7V138h1.7v1.7L148,139.7L148,139.7
			z M145.5,154.7v-1.7h1.7v1.7H145.5z M147.2,155.6v1.7h-1.7v-1.7H147.2z M147.2,148v1.7h-1.7V148H147.2z M145.5,147.2v-1.7h1.7v1.7
			H145.5z M147.2,150.6v1.7h-1.7v-1.7H147.2z M147.2,144.7h-1.7V143h1.7L147.2,144.7L147.2,144.7L147.2,144.7z M147.2,142.2h-1.7
			v-1.7h1.7L147.2,142.2C147.2,142.2,147.2,142.2,147.2,142.2z M147.2,139.7h-1.7V138h1.7L147.2,139.7L147.2,139.7L147.2,139.7z
			 M143,154.7v-1.7h1.7v1.7H143z M144.7,155.6v1.7H143v-1.7H144.7z M143,152.2v-1.7h1.7v1.7H143z M143,149.7V148h1.7v1.7H143z
			 M143,147.2v-1.7h1.7v1.7H143z M143,144.7V143h1.7v1.7L143,144.7L143,144.7z M143,142.2v-1.7h1.7v1.7
			C144.7,142.2,143,142.2,143,142.2z M143,139.7V138h1.7v1.7L143,139.7L143,139.7z M140.5,154.7v-1.7h1.7v1.7H140.5z M142.2,155.6
			v1.7h-1.7v-1.7H142.2z M140.5,152.2v-1.7h1.7v1.7H140.5z M140.5,149.7V148h1.7v1.7H140.5z M140.5,147.2v-1.7h1.7v1.7H140.5z
			 M140.5,144.7V143h1.7v1.7L140.5,144.7L140.5,144.7z M140.5,142.2v-1.7h1.7v1.7H140.5z M140.5,139.7V138h1.7v1.7h0L140.5,139.7
			L140.5,139.7z M138,154.7v-1.7h1.7v1.7H138z M139.7,155.6v1.7H138v-1.7H139.7z M138,152.2v-1.7h1.7v1.7H138z M138,149.7V148h1.7
			v1.7H138z M138,147.2v-1.7h1.7v1.7H138z M138,144.7V143h1.7v1.7L138,144.7L138,144.7z M138,142.2v-1.7h1.7v1.7H138z M138,139.7
			V138h1.7v1.7L138,139.7L138,139.7z M158.1,158.9h-21v-0.8h21V158.9L158.1,158.9z M158.1,157.7v-0.4h0v-1.7v-0.8v-1.7v-0.8v-1.7
			v-0.8V148v-0.8v-1.7v-0.8V143v-0.8v-1.7v-0.8V138v-0.4v-0.4h0.8v21h-0.8V157.7L158.1,157.7z M159.8,158.9v0.8h-0.8v-0.8H159.8z
			 M158.9,136.3v-0.8h0.8v0.8H158.9z"/>
	</g>
</g>
</svg>
