<?xml version="1.0" encoding="utf-8"?>
<!-- Generator: Adobe Illustrator 19.2.1, SVG Export Plug-In . SVG Version: 6.00 Build 0)  -->
<svg version="1.1" id="Capa_1" xmlns="http://www.w3.org/2000/svg" xmlns:xlink="http://www.w3.org/1999/xlink" x="0px" y="0px"
	 viewBox="0 0 442 442" enable-background="new 0 0 442 442" xml:space="preserve">
<g>
	<path fill="#666666" d="M221.7,216.1c-0.2,0.2-0.2,0.6,0,0.8c0.2,0.2,0.6,0.2,0.8,0l0.5-0.5c0.2-0.2,0.2-0.4,0.1-0.7
		c-0.3-0.7-0.5-1.4-0.5-2.2c0-1.5,0.6-2.9,1.7-3.9l0,3.9c0,0.2,0.1,0.4,0.3,0.5l2.8,1.9c0.2,0.1,0.5,0.1,0.7,0l2.8-1.9
		c0.2-0.1,0.3-0.3,0.3-0.5l0-3.9c1.1,1,1.7,2.4,1.7,3.9c0,1.4-0.5,2.7-1.5,3.6c-1,1-2.3,1.5-3.6,1.5c0,0,0,0,0,0
		c-0.5,0-1.4-0.2-1.7-0.3c-0.2-0.1-0.4,0-0.6,0.2l-1.8,1.8c-0.2,0.2-0.2,0.6,0,0.8c0.1,0.1,0.3,0.2,0.4,0.2c0.2,0,0.3-0.1,0.4-0.2
		l1.6-1.6c0.4,0.1,1.2,0.3,1.7,0.3c0,0,0,0,0,0c1.7,0,3.3-0.7,4.5-1.9c1.2-1.2,1.9-2.8,1.9-4.5c0-2.3-1.2-4.4-3.2-5.5
		c-0.2-0.1-0.4-0.1-0.6,0c-0.2,0.1-0.3,0.3-0.3,0.5l0,4.7l-2.2,1.5l-2.2-1.5l0-4.7c0-0.2-0.1-0.4-0.3-0.5c-0.2-0.1-0.4-0.1-0.6,0
		c-2,1.1-3.2,3.2-3.2,5.5c0,0.8,0.1,1.5,0.4,2.3L221.7,216.1z"/>
	<path fill="#666666" d="M220.1,224l-8.2,8.2c-0.3,0.3-0.7,0.5-1.2,0.5c0,0,0,0,0,0c-0.4,0-0.8-0.2-1.2-0.5
		c-0.3-0.3-0.5-0.7-0.5-1.2c0-0.4,0.2-0.8,0.5-1.2l7.1-7.1c0.2-0.2,0.2-0.6,0-0.8c-0.2-0.2-0.6-0.2-0.8,0l-7.1,7.1
		c-0.5,0.5-0.8,1.2-0.8,2c0,0.8,0.3,1.5,0.8,2c0.5,0.5,1.2,0.8,2,0.8c0,0,0,0,0,0c0.8,0,1.5-0.3,2-0.8l8.2-8.2
		c0.2-0.2,0.2-0.6,0-0.8C220.7,223.7,220.3,223.7,220.1,224z"/>
	<path fill="#666666" d="M210.7,230.3c-0.2,0-0.4,0.1-0.5,0.2c-0.3,0.3-0.3,0.7,0,1c0,0,0,0,0,0c0.1,0.1,0.3,0.2,0.5,0.2
		c0.2,0,0.4-0.1,0.5-0.2c0.3-0.3,0.3-0.7,0-1C211.1,230.4,210.9,230.3,210.7,230.3C210.7,230.3,210.7,230.3,210.7,230.3z"/>
	<path fill="#666666" d="M230.1,227.3c-0.1-0.1-0.1-0.1-0.2-0.1l-1.7-0.6l-6.1-6.1l1-1c0.2-0.2,0.2-0.6,0-0.8
		c-0.2-0.2-0.4-0.2-0.7-0.1l-9.3-9.3c-0.6-0.6-1.3-0.9-2.1-0.9c0,0,0,0,0,0c-0.8,0-1.5,0.3-2.1,0.9c-0.6,0.6-0.9,1.3-0.9,2.1
		c0,0.8,0.3,1.5,0.9,2.1l9.3,9.3c-0.1,0.2,0,0.5,0.1,0.7c0.2,0.2,0.6,0.2,0.8,0l1-1l6.1,6.1l0.6,1.7c0,0.1,0.1,0.2,0.1,0.2l3.4,3.4
		c0.1,0.1,0.3,0.2,0.4,0.2s0.3-0.1,0.4-0.2l2.2-2.2c0.1-0.1,0.2-0.3,0.2-0.4s-0.1-0.3-0.2-0.4L230.1,227.3z M220.8,220
		C220.8,220,220.8,220,220.8,220l-1.8,1.8l-9.3-9.3c-0.3-0.3-0.5-0.8-0.5-1.3c0-0.5,0.2-0.9,0.5-1.3c0.3-0.3,0.8-0.5,1.3-0.5
		c0,0,0,0,0,0c0.5,0,0.9,0.2,1.3,0.5l9.3,9.3L220.8,220C220.8,220,220.8,220,220.8,220z M230.9,232.6l-2.9-2.9l-0.6-1.7
		c0-0.1-0.1-0.2-0.1-0.2l-6.2-6.2l0.2-0.2l6.2,6.2c0.1,0.1,0.1,0.1,0.2,0.1l1.7,0.6l2.9,2.9L230.9,232.6z"/>
	<path fill="#666666" d="M211.4,210.8c-0.2-0.2-0.6-0.2-0.8,0c-0.2,0.2-0.2,0.6,0,0.8l8.2,8.2c0.1,0.1,0.3,0.2,0.4,0.2
		c0.2,0,0.3-0.1,0.4-0.2c0.2-0.2,0.2-0.6,0-0.8L211.4,210.8z"/>
</g>
</svg>
