<?xml version="1.0" encoding="utf-8"?>
<!-- Generator: Adobe Illustrator 19.2.1, SVG Export Plug-In . SVG Version: 6.00 Build 0)  -->
<svg version="1.1" id="Layer_1" xmlns="http://www.w3.org/2000/svg" xmlns:xlink="http://www.w3.org/1999/xlink" x="0px" y="0px"
	 viewBox="0 0 490 490" enable-background="new 0 0 490 490" xml:space="preserve">
<g>
	<g>
		<path fill="#666666" d="M245.3,257.9l1.3-0.5c0.7-0.3,1-1.1,0.7-1.8l-0.3-0.8c0.7-0.5,1.2-1.1,1.7-1.7l0.8,0.3
			c0.3,0.1,0.7,0.1,1,0c0.3-0.1,0.6-0.4,0.7-0.7l0.5-1.3c0.3-0.7,0-1.5-0.7-1.8l-1.2-0.5c-0.3-0.1-0.6,0-0.7,0.3
			c-0.1,0.3,0,0.6,0.3,0.7l1.2,0.5c0.2,0.1,0.2,0.3,0.2,0.4l-0.5,1.3c0,0.1-0.1,0.1-0.2,0.2c-0.1,0-0.2,0-0.2,0l-1.2-0.5
			c-0.2-0.1-0.5,0-0.6,0.2c-0.5,0.8-1.2,1.5-2,2c-0.2,0.1-0.3,0.4-0.2,0.6l0.5,1.2c0.1,0.2,0,0.3-0.2,0.4l-1.3,0.5
			c-0.1,0-0.2,0-0.2,0c-0.1,0-0.1-0.1-0.2-0.2l-0.5-1.2c-0.1-0.2-0.3-0.4-0.6-0.3c-1,0.2-1.9,0.2-2.9,0c-0.2,0-0.5,0.1-0.6,0.3
			l-0.5,1.2c-0.1,0.2-0.3,0.2-0.4,0.2l-1.3-0.5c-0.1,0-0.1-0.1-0.2-0.2c0-0.1,0-0.2,0-0.2l0.5-1.2c0.1-0.2,0-0.5-0.2-0.6
			c-0.8-0.5-1.5-1.2-2-2c-0.1-0.2-0.4-0.3-0.6-0.2l-1.2,0.5c-0.1,0-0.2,0-0.2,0c-0.1,0-0.1-0.1-0.2-0.2l-0.5-1.3c0-0.1,0-0.2,0-0.2
			c0-0.1,0.1-0.1,0.2-0.2l1.2-0.5c0.2-0.1,0.4-0.3,0.3-0.6c-0.2-1-0.2-1.9,0-2.9c0-0.2-0.1-0.5-0.3-0.6l-1.2-0.5
			c-0.2-0.1-0.2-0.3-0.2-0.4l0.5-1.3c0.1-0.2,0.3-0.2,0.4-0.2l1.2,0.5c0.2,0.1,0.5,0,0.6-0.2c0.5-0.8,1.2-1.5,2-2
			c0.2-0.1,0.3-0.4,0.2-0.6l-0.5-1.2c0-0.1,0-0.2,0-0.2c0-0.1,0.1-0.1,0.2-0.2l1.3-0.5c0.1,0,0.2,0,0.2,0c0.1,0,0.1,0.1,0.2,0.2
			l0.5,1.2c0.1,0.3,0.4,0.4,0.7,0.3c0.3-0.1,0.4-0.4,0.3-0.7l-0.5-1.2c-0.1-0.3-0.4-0.6-0.7-0.7c-0.2-0.1-0.3-0.1-0.5-0.1
			c-0.2,0-0.4,0-0.5,0.1l-1.3,0.5c-0.3,0.1-0.6,0.4-0.7,0.7c-0.1,0.3-0.1,0.7,0,1l0.3,0.8c-0.7,0.5-1.2,1.1-1.7,1.7l-0.8-0.3
			c-0.7-0.3-1.5,0-1.8,0.7l-0.6,1.3c-0.3,0.7,0,1.5,0.7,1.8l0.8,0.3c-0.1,0.8-0.1,1.6,0,2.4l-0.8,0.3c-0.3,0.1-0.6,0.4-0.7,0.7
			c-0.1,0.3-0.1,0.7,0,1l0.5,1.3c0.1,0.3,0.4,0.6,0.7,0.7c0.3,0.1,0.7,0.1,1,0l0.8-0.3c0.5,0.7,1.1,1.2,1.7,1.7l-0.3,0.8
			c-0.1,0.3-0.1,0.7,0,1c0.1,0.3,0.4,0.6,0.7,0.7l1.3,0.5c0.7,0.3,1.5,0,1.8-0.7l0.3-0.8c0.8,0.1,1.6,0.1,2.4,0l0.3,0.8
			c0.1,0.3,0.4,0.6,0.7,0.7C244.6,258.1,245,258.1,245.3,257.9z"/>
		<path fill="#666666" d="M237.6,248c0,2.4,1.9,4.3,4.3,4.3c0,0,0,0,0,0c1.2,0,2.2-0.5,3-1.3c0.8-0.8,1.2-1.9,1.2-3.1
			c0-0.3-0.2-0.5-0.5-0.5h0c-0.3,0-0.5,0.2-0.5,0.5c0,0.9-0.3,1.7-0.9,2.3s-1.4,1-2.3,1c0,0,0,0,0,0c-1.8,0-3.2-1.4-3.3-3.2
			c0-1.8,1.4-3.3,3.2-3.3c0.3,0,0.5-0.2,0.5-0.5c0-0.3-0.2-0.5-0.5-0.5c0,0,0,0,0,0C239.5,243.7,237.6,245.6,237.6,248z"/>
		<path fill="#666666" d="M250.9,232h-1c-0.6,0-1.1,0.5-1.1,1.1v0.5c-0.5,0.1-1,0.3-1.5,0.6l-0.4-0.4c-0.2-0.2-0.5-0.3-0.8-0.3
			s-0.6,0.1-0.8,0.3l-0.7,0.7c-0.2,0.2-0.3,0.5-0.3,0.8s0.1,0.6,0.3,0.8l0.4,0.4c-0.3,0.5-0.5,1-0.6,1.5h-0.5
			c-0.6,0-1.1,0.5-1.1,1.1v1c0,0.6,0.5,1.1,1.1,1.1h0.5c0.1,0.5,0.3,1,0.6,1.5l-0.4,0.4c-0.2,0.2-0.3,0.5-0.3,0.8s0.1,0.6,0.3,0.8
			l0.7,0.7c0.2,0.2,0.5,0.3,0.8,0.3s0.6-0.1,0.8-0.3l0.4-0.4c0.5,0.3,1,0.5,1.5,0.6v0.5c0,0.6,0.5,1.1,1.1,1.1h1
			c0.6,0,1.1-0.5,1.1-1.1v-0.5c0.5-0.1,1-0.3,1.5-0.6l0.4,0.4c0.2,0.2,0.5,0.3,0.8,0.3s0.6-0.1,0.8-0.3l0.7-0.7
			c0.4-0.4,0.4-1.2,0-1.6l-0.4-0.4c0.3-0.5,0.5-1,0.6-1.5h0.5c0.6,0,1.1-0.5,1.1-1.1v-1c0-0.6-0.5-1.1-1.1-1.1h-0.5
			c-0.1-0.5-0.3-1-0.6-1.5l0.4-0.4c0.4-0.4,0.4-1.2,0-1.6l-0.7-0.7c-0.2-0.2-0.5-0.3-0.8-0.3s-0.6,0.1-0.8,0.3l-0.4,0.4
			c-0.5-0.3-1-0.5-1.5-0.6v-0.5C252,232.5,251.5,232,250.9,232z M253.3,235.4c0.1,0.1,0.2,0.1,0.3,0.1c0.1,0,0.3-0.1,0.4-0.2
			l0.7-0.7c0,0,0,0,0.1,0s0,0,0.1,0l0.7,0.7c0,0,0,0.1,0,0.1l-0.7,0.7c-0.2,0.2-0.2,0.5-0.1,0.7c0.4,0.6,0.6,1.2,0.8,1.9
			c0,0.2,0.3,0.4,0.5,0.4h0.9c0,0,0.1,0,0.1,0.1v1c0,0,0,0.1-0.1,0.1H256c-0.3,0-0.5,0.2-0.5,0.4c-0.1,0.7-0.4,1.3-0.8,1.9
			c-0.1,0.2-0.1,0.5,0.1,0.7l0.7,0.7c0,0,0,0.1,0,0.1l-0.7,0.7c0,0,0,0-0.1,0s0,0-0.1,0l-0.7-0.7c-0.2-0.2-0.5-0.2-0.7-0.1
			c-0.6,0.4-1.2,0.6-1.9,0.8c-0.2,0-0.4,0.3-0.4,0.5v0.9c0,0,0,0.1-0.1,0.1h-1c0,0-0.1,0-0.1-0.1v-0.9c0-0.3-0.2-0.5-0.4-0.5
			c-0.7-0.1-1.3-0.4-1.9-0.8c-0.2-0.1-0.5-0.1-0.7,0.1l-0.7,0.7c0,0,0,0-0.1,0c0,0,0,0-0.1,0l-0.7-0.7c0,0,0,0,0-0.1c0,0,0,0,0-0.1
			l0.7-0.7c0.2-0.2,0.2-0.5,0.1-0.7c-0.4-0.6-0.6-1.2-0.8-1.9c0-0.2-0.3-0.4-0.5-0.4h-0.9c0,0-0.1,0-0.1-0.1v-1c0,0,0-0.1,0.1-0.1
			h0.9c0.3,0,0.5-0.2,0.5-0.4c0.1-0.7,0.4-1.3,0.8-1.9c0.1-0.2,0.1-0.5-0.1-0.7l-0.7-0.7c0,0,0,0,0-0.1s0,0,0-0.1l0.7-0.7
			c0,0,0,0,0.1,0c0,0,0,0,0.1,0l0.7,0.7c0.2,0.2,0.5,0.2,0.7,0.1c0.6-0.4,1.2-0.6,1.9-0.8c0.2,0,0.4-0.3,0.4-0.5v-0.9
			c0,0,0-0.1,0.1-0.1h1c0,0,0.1,0,0.1,0.1v0.9c0,0.3,0.2,0.5,0.4,0.5C252.1,234.8,252.7,235,253.3,235.4z"/>
		<path fill="#666666" d="M247.2,239.8c0,1.7,1.4,3.1,3.1,3.1s3.1-1.4,3.1-3.1s-1.4-3.1-3.1-3.1S247.2,238,247.2,239.8z
			 M252.5,239.8c0,1.2-0.9,2.1-2.1,2.1c-1.2,0-2.1-0.9-2.1-2.1s0.9-2.1,2.1-2.1C251.5,237.7,252.5,238.6,252.5,239.8z"/>
	</g>
</g>
</svg>
