<?xml version="1.0" encoding="utf-8"?>
<!-- Generator: Adobe Illustrator 19.2.1, SVG Export Plug-In . SVG Version: 6.00 Build 0)  -->
<svg version="1.1" id="Capa_1" xmlns="http://www.w3.org/2000/svg" xmlns:xlink="http://www.w3.org/1999/xlink" x="0px" y="0px"
	 viewBox="0 0 365.4 365.4" enable-background="new 0 0 365.4 365.4" xml:space="preserve">
<g>
	<g>
		<path fill="#666666" d="M190.8,183.2h-19.6c-0.3,0-0.5-0.2-0.5-0.5s0.2-0.5,0.5-0.5h19.5c0,0,0.1,0,0.1,0c1.6,0,2.9-1.3,2.9-2.9
			c0-1.6-1.3-2.9-2.9-2.9c-1.6,0-2.9,1.3-2.9,2.9c0,0.3-0.2,0.5-0.5,0.5c-0.3,0-0.5-0.2-0.5-0.5c0-2.2,1.7-3.9,3.9-3.9
			c2.2,0,3.9,1.7,3.9,3.9c0,2.1-1.7,3.8-3.8,3.9C190.9,183.2,190.9,183.2,190.8,183.2z"/>
	</g>
	<g>
		<path fill="#666666" d="M180.7,179.8h-9.5c-0.3,0-0.5-0.2-0.5-0.5s0.2-0.5,0.5-0.5h9.4c0,0,0.1,0,0.1,0c1.6,0,2.9-1.3,2.9-2.9
			c0-1.6-1.3-2.9-2.9-2.9c-1.6,0-2.9,1.3-2.9,2.9c0,0.3-0.2,0.5-0.5,0.5c-0.3,0-0.5-0.2-0.5-0.5c0-2.2,1.7-3.9,3.9-3.9
			c2.2,0,3.9,1.7,3.9,3.9c0,2.1-1.7,3.8-3.8,3.9C180.8,179.7,180.8,179.8,180.7,179.8z"/>
	</g>
	<g>
		<path fill="#666666" d="M186.8,193.5c-2.2,0-3.9-1.7-3.9-3.9c0-0.3,0.2-0.5,0.5-0.5s0.5,0.2,0.5,0.5c0,1.6,1.3,2.9,2.9,2.9
			c1.6,0,2.9-1.3,2.9-2.9c0-1.6-1.3-2.9-2.9-2.9h-15.5c-0.3,0-0.5-0.2-0.5-0.5s0.2-0.5,0.5-0.5h15.5c2.2,0,3.9,1.7,3.9,3.9
			C190.7,191.8,188.9,193.5,186.8,193.5z"/>
	</g>
</g>
</svg>
