<?xml version="1.0" encoding="utf-8"?>
<!-- Generator: Adobe Illustrator 19.2.1, SVG Export Plug-In . SVG Version: 6.00 Build 0)  -->
<svg version="1.1" id="Layer_1" xmlns="http://www.w3.org/2000/svg" xmlns:xlink="http://www.w3.org/1999/xlink" x="0px" y="0px"
	 viewBox="0 0 100 100" enable-background="new 0 0 100 100" xml:space="preserve">
<g>
	<g>
		<path fill="#FF9591" d="M1.3,39.7l24,24l2.4,2.4l11.6,11.6c2.2,2.2,5.4,3,8.4,2.1l12.2-3.6c2.1-0.6,4.3,0,5.8,1.5
			c0.8,0.8,1.4,1.9,1.6,3c0.6,2.8,1.9,5.3,3.9,7.3c3.9,3.9,8.9,6.8,14.2,8.3l2.2,0.6c2.6,0.7,5.4,0,7.3-1.9c1.9-1.9,2.7-4.7,1.9-7.3
			l-0.6-2.2c-1.5-5.4-4.3-10.3-8.3-14.2c-2-2-4.5-3.4-7.3-3.9c-1.1-0.2-2.2-0.8-3-1.6c-1.5-1.5-2.1-3.8-1.5-5.8l3.6-12.2
			c0.9-3,0.1-6.2-2.1-8.4L66.2,27.7l-2.4-2.4l-24-24L1.3,39.7z M71,37.3l-7.2,7.2l2.4,2.4l7.2-7.2l2,2c1.3,1.3,1.8,3.3,1.3,5L73,59
			c-1,3.3-0.1,6.8,2.3,9.2c1.3,1.3,2.9,2.2,4.7,2.5c2.1,0.4,4.1,1.5,5.6,3c3.5,3.5,6.1,7.9,7.4,12.7l0.6,2.2c0.4,1.4,0,3-1.1,4
			c-1.1,1.1-2.6,1.5-4,1.1l-2.2-0.6c-4.8-1.3-9.2-3.9-12.7-7.4c-1.5-1.5-2.6-3.5-3-5.6c-0.4-1.8-1.2-3.4-2.5-4.7
			C65.7,72.9,62.2,72,59,73l-12.2,3.6c-1.8,0.5-3.7,0-5-1.3l-2-2l24-24l-2.4-2.4l-24,24l-7.2-7.2l33.6-33.6L71,37.3z M61.4,27.7
			L27.7,61.4L6.1,39.7l3.6-3.6l14.4,14.4l2.4-2.4L12.1,33.7l7.2-7.2l8.4,8.4l2.4-2.4l-8.4-8.4l8.4-8.4l12,12l2.4-2.4l-12-12l7.2-7.2
			L61.4,27.7z"/>
	</g>
</g>
</svg>
