<?xml version="1.0" encoding="utf-8"?>
<!-- Generator: Adobe Illustrator 19.2.1, SVG Export Plug-In . SVG Version: 6.00 Build 0)  -->
<svg version="1.1" id="Layer_1" xmlns="http://www.w3.org/2000/svg" xmlns:xlink="http://www.w3.org/1999/xlink" x="0px" y="0px"
	 viewBox="0 0 100 100" enable-background="new 0 0 100 100" xml:space="preserve">
<g>
	<g>
		<path fill="#FF9591" d="M72.5,86.3l0.5-0.4c0.1-0.1,0.1-0.1,0.2-0.2c0.3-0.3,6.2-7.1,8.4-12.4h1.1c3.1,0,5.6-2.5,5.6-5.6v-8.8
			c0-3.1-2.5-5.6-5.6-5.6h-1.2c-1.8-4.8-5-9.1-9.2-12.7c-0.6-2.2-0.2-4.5,1.4-6.9c0.9-1.4,0.9-3.1,0-4.4s-2.4-2.1-4-1.9
			c-5.9,0.7-9.4,3.4-11.4,5.9c-1.9-0.5-3.9-0.9-5.9-1.2c-1.1-0.1-2.1,0.6-2.2,1.8c-0.1,1.1,0.6,2.1,1.8,2.2c2.2,0.3,4.4,0.7,6.5,1.4
			c0.9,0.3,1.8-0.1,2.3-0.8c1.4-2,4.2-4.6,9.5-5.3c0,0,0.1,0,0.1,0.1c0,0.1,0,0.1,0,0.1c-2.1,3.4-2.7,6.9-1.8,10.2
			c0,0.6,0.3,1.1,0.7,1.5c4.3,3.4,7.4,7.8,9,12.7c0.3,0.8,1.1,1.4,1.9,1.4l0,0h2.6c0.9,0,1.5,0.7,1.5,1.5v8.8c0,0.9-0.7,1.5-1.5,1.5
			h-2.5c-0.9,0-1.7,0.6-1.9,1.4c-1.1,3.7-6.1,10-8.1,12.2l-0.4,0.4c-4.2,3.8-4.6,8.2-4.6,9.6v2.8H53.7v-2.7c0-0.6-0.2-1.1-0.7-1.5
			c-0.4-0.4-1-0.6-1.6-0.5c-3,0.3-5.9,0.3-8.8-0.1c-0.6-0.1-1.2,0.1-1.6,0.5c-0.4,0.4-0.7,0.9-0.7,1.5v2.8H28.8v-0.8
			c0,0,0-0.1,0-0.1c-0.1-2.1-0.8-7.5-5-11.9c-2-2-3.8-4.8-5.3-8c0,0,0,0,0-0.1c-0.9-1.7-1.6-3.6-2.1-5.5l0-0.1c0,0,0,0,0-0.1
			c-0.7-2.4-0.6-5.5-0.6-5.5s0,0,0-0.1c0-1.3,0.1-2.7,0.3-4c0.2-1.1-0.5-2.1-1.6-2.3c-1.1-0.2-2.1,0.5-2.3,1.6
			c-0.3,1.5-0.4,3.1-0.4,4.6c0,0.4-0.1,3.8,0.8,6.7l0,0c0.5,2.2,1.3,4.3,2.4,6.3c1.7,3.7,3.7,6.7,6,9.1c3.2,3.3,3.8,7.5,3.8,9.2v0.8
			c0,0.1,0,0.1,0,0.3c0.1,2,1.9,3.7,3.9,3.7h11.7c2.2,0,3.9-1.8,3.9-3.9v-0.7c1.8,0.1,3.5,0.2,5.3,0.1v0.6c0,2.2,1.8,3.9,3.9,3.9
			h11.7c2.2,0,3.9-1.8,3.9-3.9v-2.9C69.3,92.2,69.5,89,72.5,86.3z"/>
		<path fill="#FF9591" d="M11.9,39.1c0,9.1,7.4,16.5,16.5,16.5c9.1,0,16.5-7.4,16.5-16.5c0-9.1-7.4-16.5-16.5-16.5
			C19.3,22.6,11.9,30,11.9,39.1z M40.9,39.1c0,6.9-5.6,12.5-12.5,12.5S15.9,46,15.9,39.1s5.6-12.5,12.5-12.5S40.9,32.2,40.9,39.1z"
			/>
		<path fill="#FF9591" d="M58.7,11.9c0-6.3-5.2-11.5-11.5-11.5S35.7,5.5,35.7,11.9s5.2,11.5,11.5,11.5S58.7,18.2,58.7,11.9z
			 M39.7,11.9c0-4.1,3.4-7.5,7.5-7.5s7.5,3.4,7.5,7.5s-3.4,7.5-7.5,7.5S39.7,16,39.7,11.9z"/>
	</g>
</g>
</svg>
