<?xml version="1.0" encoding="utf-8"?>
<!-- Generator: Adobe Illustrator 19.2.1, SVG Export Plug-In . SVG Version: 6.00 Build 0)  -->
<svg version="1.1" id="Layer_1" xmlns="http://www.w3.org/2000/svg" xmlns:xlink="http://www.w3.org/1999/xlink" x="0px" y="0px"
	 viewBox="0 0 100 100" enable-background="new 0 0 100 100" xml:space="preserve">
<path fill="#666666" d="M76,36.2H59.8v3.2H76c2.7,0,4.9,2.2,4.9,4.9v6.5c-1.3-1-3-1.7-4.9-1.7H24.1c-2.7,0-4.9-2.2-4.9-4.9
	c0-2.7,2.2-4.9,4.9-4.9H42v-3.2H24.1c-4.5,0-8.1,3.6-8.1,8.1v47c0,4.5,3.6,8.1,8.1,8.1H76c4.5,0,8.1-3.6,8.1-8.1v-4.9V63.7v-6.5v-13
	C84.1,39.8,80.4,36.2,76,36.2z M80.8,83.2H61.3c-4.5,0-8.1-3.6-8.1-8.1s3.6-8.1,8.1-8.1h19.5V83.2z M80.8,63.7H61.3
	c-6.3,0-11.3,5.1-11.3,11.3s5.1,11.3,11.3,11.3h19.5v4.9c0,2.7-2.2,4.9-4.9,4.9H24.1c-2.7,0-4.9-2.2-4.9-4.9V50.8
	c1.3,1,3,1.6,4.9,1.6H76c2.7,0,4.9,2.2,4.9,4.9L80.8,63.7L80.8,63.7z"/>
<rect x="24.1" y="42.7" fill="#666666" width="51.8" height="3.2"/>
<circle fill="#FF9591" cx="50" cy="31.4" r="13"/>
<path fill="#666666" d="M56.5,75.1c0,2.7,2.2,4.9,4.9,4.9c2.7,0,4.9-2.2,4.9-4.9s-2.2-4.9-4.9-4.9C58.7,70.2,56.5,72.4,56.5,75.1z
	 M63,75.1c0,0.9-0.7,1.6-1.6,1.6c-0.9,0-1.6-0.7-1.6-1.6s0.7-1.6,1.6-1.6C62.3,73.4,63,74.2,63,75.1z"/>
<rect x="48.4" y="0.6" fill="#666666" width="3.2" height="13"/>
<rect x="59.8" y="5.4" fill="#666666" width="3.2" height="13"/>
<rect x="37.1" y="8.7" fill="#666666" width="3.2" height="9.7"/>
<g enable-background="new    ">
	<path fill="#666666" d="M51.3,32.9h-1.5v1.9h2.9c0.3,0,0.4,0,0.4,0.4v1.1c0,0.3,0,0.4-0.4,0.4h-2.9v2.4c0,0.3-0.1,0.4-0.4,0.4h-1.6
		c-0.3,0-0.4,0-0.4-0.4v-2.4h-1.5c-0.4,0-0.4-0.1-0.4-0.4v-1.1c0-0.4,0-0.4,0.4-0.4h1.5v-1.9h-1.5c-0.4,0-0.4-0.1-0.4-0.4v-1.3
		c0-0.4,0-0.4,0.4-0.4h1.5V24c0-0.3,0-0.4,0.4-0.4h3.5c4.1,0,5,1.6,5,4.3C56.3,31.2,54.2,32.9,51.3,32.9z M51.1,25.6h-1.3v5.2H51
		c1.8,0,2.9-0.7,2.9-2.8C53.9,26.2,53.1,25.6,51.1,25.6z"/>
</g>
</svg>
