<?xml version="1.0" encoding="utf-8"?>
<!-- Generator: Adobe Illustrator 19.2.1, SVG Export Plug-In . SVG Version: 6.00 Build 0)  -->
<svg version="1.1" id="Capa_1" xmlns="http://www.w3.org/2000/svg" xmlns:xlink="http://www.w3.org/1999/xlink" x="0px" y="0px"
	 viewBox="0 0 100 100" enable-background="new 0 0 100 100" xml:space="preserve">
<g>
	<path fill="#FF9591" d="M26.4,64.7c-1.4-1.1-3.2-1.7-5-1.7c-2.4,0-4.7,1.1-6.2,3c-1.3,1.7-1.9,3.7-1.7,5.8c0.2,2.1,1.3,4,3,5.3
		c1.4,1.1,3.2,1.7,5,1.7c2.4,0,4.7-1.1,6.2-3c1.3-1.7,1.9-3.7,1.7-5.8C29.2,67.9,28.1,66,26.4,64.7z M24.9,73.6
		c-0.8,1-2.1,1.6-3.4,1.6c-1,0-1.9-0.3-2.7-0.9c-0.9-0.7-1.5-1.7-1.6-2.9c-0.1-1.1,0.2-2.3,0.9-3.1c0.8-1,2.1-1.6,3.4-1.6
		c1,0,1.9,0.3,2.7,0.9c0.9,0.7,1.5,1.7,1.6,2.9C25.9,71.6,25.6,72.7,24.9,73.6z"/>
	<path fill="#FF9591" d="M58.4,46c1.2,0,2.4-0.3,3.5-0.8c1.9-0.9,3.4-2.5,4.1-4.5c0.7-2,0.6-4.1-0.4-6c-1.3-2.7-4.1-4.5-7.2-4.5
		c-1.2,0-2.4,0.3-3.5,0.8c-1.9,0.9-3.4,2.5-4.1,4.5c-0.7,2-0.6,4.1,0.4,6.1C52.6,44.3,55.4,46,58.4,46z M54.3,36.7
		c0.4-1.1,1.2-2,2.2-2.5c0.6-0.3,1.2-0.4,1.9-0.4c1.7,0,3.2,1,3.9,2.4c0.5,1,0.6,2.2,0.2,3.3c-0.4,1.1-1.2,2-2.2,2.5
		c-0.6,0.3-1.2,0.4-1.9,0.4c-1.7,0-3.2-1-3.9-2.4C54,38.9,53.9,37.8,54.3,36.7z"/>
	<path fill="#FF9591" d="M38.6,33.2c0.6,0.1,1.2,0.2,1.8,0.2c3.7,0,6.9-2.5,7.8-6.2c0.5-2.1,0.1-4.2-1-6c-1.1-1.8-2.9-3.1-5-3.5
		c-0.6-0.1-1.2-0.2-1.8-0.2c-3.7,0-6.9,2.5-7.8,6.2c-0.5,2.1-0.1,4.2,1,6C34.8,31.5,36.5,32.7,38.6,33.2z M36.2,24.5
		c0.5-2,2.2-3.3,4.2-3.3c0.3,0,0.7,0,1,0.1c1.1,0.3,2.1,0.9,2.7,1.9c0.6,1,0.8,2.1,0.6,3.2c-0.4,1.9-2.2,3.3-4.2,3.3
		c-0.3,0-0.7,0-1-0.1c-1.1-0.3-2.1-0.9-2.7-1.9C36.1,26.8,35.9,25.6,36.2,24.5z"/>
	<path fill="#FF9591" d="M24.2,37.7c1.7-1.3,2.7-3.2,3-5.3c0.2-2.1-0.4-4.2-1.7-5.8c-1.5-1.9-3.8-3-6.2-3c-1.8,0-3.6,0.6-5,1.7
		c-1.7,1.3-2.7,3.2-3,5.3c-0.2,2.1,0.4,4.2,1.7,5.8c1.5,1.9,3.8,3,6.2,3C21,39.5,22.8,38.8,24.2,37.7z M15.8,34.2
		c-0.7-0.9-1-2-0.9-3.2c0.1-1.1,0.7-2.2,1.6-2.9c0.8-0.6,1.7-0.9,2.7-0.9c1.3,0,2.6,0.6,3.4,1.6c0.7,0.9,1,2,0.9,3.1
		c-0.1,1.1-0.7,2.2-1.6,2.9c-0.8,0.6-1.7,0.9-2.7,0.9C17.9,35.8,16.6,35.2,15.8,34.2z"/>
	<path fill="#FF9591" d="M98.6,19.9c-0.3-0.3-0.9-0.7-1.8-0.7c-1,0-3.8,0-20.5,14.3c-0.3,0.3-0.7,0.6-1,0.9c-3-7.8-8.2-14.8-15-19.8
		c-7.8-5.8-17-8.8-26.7-8.8c0,0,0,0,0,0c-6.6,0-14.5,2.3-20.8,6C5,16.2,0.7,22.3,0.7,28.8c0,7.8,4.4,11.1,7.9,13.7
		c2.9,2.1,5.2,3.8,5.2,7.5c0,3.7-2.3,5.4-5.2,7.5c-3.5,2.6-7.9,5.9-7.9,13.7c0,6.5,4.2,12.5,11.9,17.1c6.3,3.7,14.3,6,20.8,6
		c0,0,0,0,0,0c11.9,0,23.1-4.6,31.6-13c8.3-8.2,12.9-19.2,13.1-30.8c2.8-3.2,5.6-6.4,8.1-9.4c4.3-5.2,7.6-9.4,9.8-12.6
		C98.9,24.2,100.2,21.5,98.6,19.9z M62.5,78.7c-7.7,7.7-18,11.9-29,11.9c0,0,0,0,0,0c-11.7,0-29.2-8.2-29.2-19.4
		c0-6,3.1-8.3,6.5-10.8c3.1-2.3,6.6-4.9,6.6-10.5c0-5.5-3.5-8.1-6.6-10.5c-3.3-2.5-6.5-4.8-6.5-10.8c0-6.9,6.4-11.7,10.1-13.9
		c5.7-3.3,13.1-5.5,19-5.5c0,0,0,0,0,0c8.9,0,17.4,2.8,24.6,8.1c6.6,4.9,11.6,11.8,14.3,19.4c-7.9,6.9-16.4,14.8-22.8,21.2
		c-10.6,1.4-12,8.4-13.1,13.6c-0.9,4.4-1.5,6.5-4.9,6.8c-0.8,0.1-1.5,0.7-1.7,1.5c-0.1,0.8,0.3,1.6,1.1,2c0.2,0.1,5.4,2.2,11.5,2.2
		c0,0,0,0,0,0c4.2,0,7.9-1,10.8-3.1c3.6-2.5,6.1-6.5,7.3-11.8c4.2-4.2,8.9-9.3,13.6-14.5C73.1,63.9,69.1,72.2,62.5,78.7z M57,69.1
		c-1.9,7.6-6.8,11.5-14.4,11.5c0,0,0,0,0,0c-2,0-4-0.3-5.6-0.6c1.9-2,2.5-5,3.1-7.5c1-4.9,1.9-9.6,9.7-10.7L57,69.1z M82.1,40.3
		C74.9,48.9,66.1,58.6,59,65.9l-1.1-1.1l-4.9-4.9c6.5-6.5,14.9-14.2,22.7-21l0,0c0.9-0.8,1.8-1.6,2.7-2.3
		c9.1-7.7,13.8-11.1,16.2-12.5C93.1,26.4,89.8,31.2,82.1,40.3z"/>
</g>
</svg>
