<?xml version="1.0" encoding="utf-8"?>
<!-- Generator: Adobe Illustrator 19.2.1, SVG Export Plug-In . SVG Version: 6.00 Build 0)  -->
<svg version="1.1" id="Layer_1" xmlns="http://www.w3.org/2000/svg" xmlns:xlink="http://www.w3.org/1999/xlink" x="0px" y="0px"
	 viewBox="0 0 100 100" enable-background="new 0 0 100 100" xml:space="preserve">
<g>
	<g>
		<path fill="#FF9591" d="M50,57.3c-0.9,0-1.6,0.7-1.6,1.6v5.9c0,0.9,0.7,1.6,1.6,1.6c0.9,0,1.6-0.7,1.6-1.6v-5.9
			C51.6,58,50.9,57.3,50,57.3z"/>
	</g>
</g>
<g>
	<g>
		<path fill="#FF9591" d="M50,33.7c-0.9,0-1.6,0.7-1.6,1.6v5.9c0,0.9,0.7,1.6,1.6,1.6c0.9,0,1.6-0.7,1.6-1.6v-5.9
			C51.6,34.4,50.9,33.7,50,33.7z"/>
	</g>
</g>
<g>
	<g>
		<path fill="#FF9591" d="M50,69c-0.9,0-1.6,0.7-1.6,1.6v5.9c0,0.9,0.7,1.6,1.6,1.6c0.9,0,1.6-0.7,1.6-1.6v-5.9
			C51.6,69.7,50.9,69,50,69z"/>
	</g>
</g>
<g>
	<g>
		<path fill="#FF9591" d="M50,22c-0.9,0-1.6,0.7-1.6,1.6v5.9c0,0.9,0.7,1.6,1.6,1.6c0.9,0,1.6-0.7,1.6-1.6v-5.9
			C51.6,22.7,50.9,22,50,22z"/>
	</g>
</g>
<g>
	<g>
		<path fill="#FF9591" d="M29.4,48.4h-5.9c-0.9,0-1.6,0.7-1.6,1.6c0,0.9,0.7,1.6,1.6,1.6h5.9c0.9,0,1.6-0.7,1.6-1.6
			S30.3,48.4,29.4,48.4z"/>
	</g>
</g>
<g>
	<g>
		<path fill="#FF9591" d="M41.2,48.4h-5.9c-0.9,0-1.6,0.7-1.6,1.6c0,0.9,0.7,1.6,1.6,1.6h5.9c0.9,0,1.6-0.7,1.6-1.6
			S42,48.4,41.2,48.4z"/>
	</g>
</g>
<g>
	<g>
		<path fill="#FF9591" d="M52.9,48.4h-1.4v-1.4c0-0.9-0.7-1.6-1.6-1.6c-0.9,0-1.6,0.7-1.6,1.6v1.4h-1.4c-0.9,0-1.6,0.7-1.6,1.6
			c0,0.9,0.7,1.6,1.6,1.6h1.4v1.4c0,0.9,0.7,1.6,1.6,1.6c0.9,0,1.6-0.7,1.6-1.6v-1.4h1.4c0.9,0,1.6-0.7,1.6-1.6S53.8,48.4,52.9,48.4
			z"/>
	</g>
</g>
<g>
	<g>
		<path fill="#FF9591" d="M76.5,48.4h-5.9c-0.9,0-1.6,0.7-1.6,1.6c0,0.9,0.7,1.6,1.6,1.6h5.9c0.9,0,1.6-0.7,1.6-1.6
			S77.3,48.4,76.5,48.4z"/>
	</g>
</g>
<g>
	<g>
		<path fill="#FF9591" d="M64.7,48.4h-5.9c-0.9,0-1.6,0.7-1.6,1.6c0,0.9,0.7,1.6,1.6,1.6h5.9c0.9,0,1.6-0.7,1.6-1.6
			S65.6,48.4,64.7,48.4z"/>
	</g>
</g>
<g>
	<g>
		<path fill="#FF9591" d="M85.9,12.9H14.1c-0.9,0-1.6,0.7-1.6,1.6v71c0,0.9,0.7,1.6,1.6,1.6h71.8c0.9,0,1.6-0.7,1.6-1.6v-71
			C87.5,13.6,86.8,12.9,85.9,12.9z M84.3,48.4h-2c-0.9,0-1.6,0.7-1.6,1.6c0,0.9,0.7,1.6,1.6,1.6h2v32.4H51.6v-1.6
			c0-0.9-0.7-1.6-1.6-1.6c-0.9,0-1.6,0.7-1.6,1.6v1.6H15.7V51.6h2c0.9,0,1.6-0.7,1.6-1.6s-0.7-1.6-1.6-1.6h-2V16.1h32.8v1.6
			c0,0.9,0.7,1.6,1.6,1.6c0.9,0,1.6-0.7,1.6-1.6v-1.6h32.8V48.4z"/>
	</g>
</g>
<g>
	<g>
		<path fill="#FF9591" d="M85.9,1.3c-0.9,0-1.6,0.7-1.6,1.6v6.7c0,0.9,0.7,1.6,1.6,1.6c0.9,0,1.6-0.7,1.6-1.6V2.8
			C87.5,2,86.8,1.3,85.9,1.3z"/>
	</g>
</g>
<g>
	<g>
		<path fill="#FF9591" d="M98.4,12.9h-6.7c-0.9,0-1.6,0.7-1.6,1.6s0.7,1.6,1.6,1.6h6.7c0.9,0,1.6-0.7,1.6-1.6S99.3,12.9,98.4,12.9z"
			/>
	</g>
</g>
<g>
	<g>
		<path fill="#FF9591" d="M14.1,1.3c-0.9,0-1.6,0.7-1.6,1.6v6.7c0,0.9,0.7,1.6,1.6,1.6c0.9,0,1.6-0.7,1.6-1.6V2.8
			C15.7,2,15,1.3,14.1,1.3z"/>
	</g>
</g>
<g>
	<g>
		<path fill="#FF9591" d="M8.2,12.9H1.6c-0.9,0-1.6,0.7-1.6,1.6c0,0.9,0.7,1.6,1.6,1.6h6.7c0.9,0,1.6-0.7,1.6-1.6S9.1,12.9,8.2,12.9
			z"/>
	</g>
</g>
<g>
	<g>
		<path fill="#FF9591" d="M85.9,88.9c-0.9,0-1.6,0.7-1.6,1.6v6.7c0,0.9,0.7,1.6,1.6,1.6c0.9,0,1.6-0.7,1.6-1.6v-6.7
			C87.5,89.6,86.8,88.9,85.9,88.9z"/>
	</g>
</g>
<g>
	<g>
		<path fill="#FF9591" d="M98.4,83.9h-6.7c-0.9,0-1.6,0.7-1.6,1.6s0.7,1.6,1.6,1.6h6.7c0.9,0,1.6-0.7,1.6-1.6S99.3,83.9,98.4,83.9z"
			/>
	</g>
</g>
<g>
	<g>
		<path fill="#FF9591" d="M14.1,88.9c-0.9,0-1.6,0.7-1.6,1.6v6.7c0,0.9,0.7,1.6,1.6,1.6c0.9,0,1.6-0.7,1.6-1.6v-6.7
			C15.7,89.6,15,88.9,14.1,88.9z"/>
	</g>
</g>
<g>
	<g>
		<path fill="#FF9591" d="M8.2,83.9H1.6c-0.9,0-1.6,0.7-1.6,1.6s0.7,1.6,1.6,1.6h6.7c0.9,0,1.6-0.7,1.6-1.6S9.1,83.9,8.2,83.9z"/>
	</g>
</g>
</svg>
