<?xml version="1.0" encoding="utf-8"?>
<!-- Generator: Adobe Illustrator 19.2.1, SVG Export Plug-In . SVG Version: 6.00 Build 0)  -->
<svg version="1.1" id="Capa_1" xmlns="http://www.w3.org/2000/svg" xmlns:xlink="http://www.w3.org/1999/xlink" x="0px" y="0px"
	 viewBox="0 0 100 100" enable-background="new 0 0 100 100" xml:space="preserve">
<g>
	<path fill="#FF9591" d="M92,59.4L92,59.4l-5.5-6.3c-0.4-0.5-1.1-0.7-1.8-0.5c-0.6,0.2-1.1,0.7-1.2,1.4c-0.1,1.2-0.3,2.3-0.5,3.4
		c-0.9-4.2-2.6-8.3-4.8-12.4V15c0-0.9-0.7-1.7-1.7-1.7c-24.4,0-35.2-12.6-35.3-12.7C41,0.2,40.5,0,40,0c-0.5,0-1,0.2-1.3,0.6
		c-0.1,0.1-11,12.7-35.3,12.7c-0.9,0-1.7,0.7-1.7,1.7v31.8c0,17.4,7.8,33.9,20.9,44.2c5.3,4.1,11,7.1,16.9,8.9
		c0.2,0,0.3,0.1,0.5,0.1s0.3,0,0.5-0.1c5.5-1.6,10.7-4.3,15.6-7.9C60.7,97,67.2,100,74,100c0,0,0.1,0,0.2,0c6.9,0,13.4-2.9,18-8
		C100.4,82.9,100.3,68.9,92,59.4z M40,96.5c-3-0.9-5.9-2.2-8.8-3.8c0.3-0.3,0.4-0.7,0.4-1.1c0-0.9-0.7-1.7-1.7-1.7
		c-0.7,0-1.3,0.5-1.6,1.1c-1.3-0.8-2.6-1.7-3.8-2.7c-0.1-0.1-0.1-0.1-0.2-0.2c0.2,0.1,0.4,0.1,0.6,0.1c0.9,0,1.7-0.7,1.7-1.7
		s-0.7-1.7-1.7-1.7s-1.7,0.7-1.7,1.7c0,0.3,0.1,0.6,0.3,0.9c-3.2-2.7-6.1-5.8-8.6-9.2c0.9,0,1.6-0.8,1.6-1.7c0-0.9-0.7-1.7-1.7-1.7
		c-0.7,0-1.3,0.4-1.5,1c-0.7-1.1-1.4-2.3-2.1-3.5c0.1-0.2,0.3-0.5,0.3-0.8c0-0.9-0.7-1.5-1.5-1.6c-1.8-3.8-3.2-7.9-4-12.2
		c0.3-0.3,0.5-0.7,0.5-1.2c0-0.7-0.4-1.3-1-1.5c-0.3-2.2-0.5-4.5-0.6-6.8c0.9,0,1.6-0.8,1.6-1.7C6.7,45.7,6,45,5,45v-6.7
		c0.9,0,1.7-0.7,1.7-1.7C6.7,35.7,6,35,5,35v-6.7c0.9,0,1.7-0.7,1.7-1.7C6.7,25.7,6,25,5,25v-6.7c0.9,0,1.7-0.7,1.7-1.7
		c0,0,0-0.1,0-0.1c2.4-0.1,4.7-0.3,6.9-0.7c-0.1,0.2-0.2,0.5-0.2,0.8c0,0.9,0.7,1.7,1.7,1.7s1.7-0.7,1.7-1.7c0-0.5-0.2-0.9-0.5-1.2
		c4.8-0.9,8.8-2.3,12.2-3.8c0,0.9,0.7,1.7,1.7,1.7c0.9,0,1.7-0.7,1.7-1.7c0-0.5-0.3-1-0.6-1.3c1.3-0.7,2.5-1.4,3.6-2.1
		c0.1,0,0.2,0.1,0.4,0.1c0.8,0,1.5-0.6,1.6-1.4c1.5-1.1,2.6-2.1,3.4-2.8c3.6,3.4,14.6,12.1,35,12.6v23.5C74.7,40,74.5,40,74.2,40
		c0,0,0,0,0,0c-0.5,0-0.9,0.2-1.3,0.6l-5.4,6.2C62,53,58.9,61,58.7,69.1c-0.3-0.8-0.7-1.6-1-2.4c-0.4-1.1-0.7-2.1-1-3.3
		c-0.2-0.6-0.7-1.1-1.4-1.2c-0.2,0-0.3,0-0.5,0c-0.5,0.1-0.9,0.3-1.2,0.8c0,0.1-0.1,0.1-0.1,0.2c-0.3,0.5-0.6,1-0.8,1.5
		c-0.1,0.2-0.2,0.4-0.3,0.5c-0.2,0.4-0.4,0.8-0.5,1.2c-0.1,0.2-0.1,0.4-0.2,0.6c-0.2,0.4-0.3,0.8-0.4,1.2c-0.1,0.2-0.1,0.3-0.2,0.5
		c-0.1,0.4-0.3,0.9-0.4,1.3c0,0.1-0.1,0.3-0.1,0.4c-0.1,0.5-0.2,1-0.3,1.5c0,0.1,0,0.2,0,0.3c-0.1,0.6-0.2,1.1-0.2,1.7
		c0,0,0,0.1,0,0.1c-0.2,3.1,0.1,6.3,1.1,9.3c0,0.1,0.1,0.2,0.1,0.4c0.1,0.4,0.3,0.9,0.5,1.3c0.1,0.2,0.2,0.4,0.3,0.7
		c0.1,0.3,0.3,0.6,0.4,0.9c0.1,0.3,0.3,0.6,0.5,0.9c0.1,0.2,0.2,0.4,0.4,0.6c0.2,0.3,0.4,0.7,0.6,1c0,0.1,0.1,0.1,0.1,0.2
		C49.7,92.5,44.9,95,40,96.5z M89.7,89.8c-4,4.4-9.7,7-15.6,6.9c-6,0-11.6-2.6-15.6-7.1c-0.3-0.3-0.5-0.6-0.8-1c0,0,0,0,0,0
		c-0.6-0.7-1.1-1.5-1.5-2.2c0,0,0,0,0-0.1c-0.4-0.7-0.8-1.5-1.1-2.2c0-0.1-0.1-0.2-0.1-0.3c-0.3-0.7-0.5-1.4-0.7-2.1
		c-0.1-0.2-0.1-0.4-0.1-0.5c-0.2-0.7-0.3-1.4-0.4-2c0-0.2-0.1-0.4-0.1-0.7c-0.1-0.7-0.1-1.3-0.2-2c0-0.2,0-0.5,0-0.7
		c0-0.7,0-1.4,0.1-2c0-0.2,0-0.4,0.1-0.6c0.1-0.7,0.2-1.4,0.4-2.1c0-0.1,0.1-0.3,0.1-0.4c0.2-0.7,0.4-1.5,0.7-2.2c0,0,0-0.1,0-0.1
		c1.7,4.6,4,8.1,4.8,9.4c0.2,0.3,0.3,0.4,0.3,0.5c0.5,0.6,1.3,0.9,2,0.6c0.7-0.3,1.1-1.1,1-1.9l-0.1-0.3c-0.5-2.4-0.8-4.9-0.7-7.3
		c0.2-7.3,3-14.6,8-20.3l4-4.6c0.1,0.1,0.1,0.2,0.2,0.4c4.3,7.2,6.5,14.6,6.5,21.9c0,0.8,0.6,1.5,1.4,1.6c0.8,0.1,1.6-0.3,1.9-1.1
		c0.1-0.2,1.4-3.9,2.3-9.1l3.2,3.6C96.7,69.8,96.8,81.9,89.7,89.8z"/>
	<circle fill="#FF9591" cx="40" cy="11.7" r="1.7"/>
	<circle fill="#FF9591" cx="10" cy="21.6" r="1.7"/>
	<circle fill="#FF9591" cx="20" cy="21.6" r="1.7"/>
	<circle fill="#FF9591" cx="25" cy="16.6" r="1.7"/>
	<circle fill="#FF9591" cx="30" cy="21.6" r="1.7"/>
	<circle fill="#FF9591" cx="35" cy="16.6" r="1.7"/>
	<circle fill="#FF9591" cx="40" cy="21.6" r="1.7"/>
	<circle fill="#FF9591" cx="10" cy="31.6" r="1.7"/>
	<circle fill="#FF9591" cx="15" cy="26.6" r="1.7"/>
	<circle fill="#FF9591" cx="20" cy="31.6" r="1.7"/>
	<circle fill="#FF9591" cx="25" cy="26.6" r="1.7"/>
	<circle fill="#FF9591" cx="30" cy="31.6" r="1.7"/>
	<circle fill="#FF9591" cx="35" cy="26.6" r="1.7"/>
	<circle fill="#FF9591" cx="40" cy="31.6" r="1.7"/>
	<circle fill="#FF9591" cx="10" cy="41.6" r="1.7"/>
	<circle fill="#FF9591" cx="15" cy="36.6" r="1.7"/>
	<circle fill="#FF9591" cx="20" cy="41.6" r="1.7"/>
	<circle fill="#FF9591" cx="25" cy="36.6" r="1.7"/>
	<circle fill="#FF9591" cx="30" cy="41.6" r="1.7"/>
	<circle fill="#FF9591" cx="35" cy="36.6" r="1.7"/>
	<circle fill="#FF9591" cx="40" cy="41.6" r="1.7"/>
	<circle fill="#FF9591" cx="10" cy="51.6" r="1.7"/>
	<circle fill="#FF9591" cx="15" cy="46.6" r="1.7"/>
	<circle fill="#FF9591" cx="20" cy="51.6" r="1.7"/>
	<circle fill="#FF9591" cx="25" cy="46.6" r="1.7"/>
	<circle fill="#FF9591" cx="30" cy="51.6" r="1.7"/>
	<circle fill="#FF9591" cx="35" cy="46.6" r="1.7"/>
	<circle fill="#FF9591" cx="40" cy="51.6" r="1.7"/>
	<circle fill="#FF9591" cx="10" cy="61.6" r="1.7"/>
	<circle fill="#FF9591" cx="15" cy="56.6" r="1.7"/>
	<circle fill="#FF9591" cx="20" cy="61.6" r="1.7"/>
	<circle fill="#FF9591" cx="25" cy="56.6" r="1.7"/>
	<circle fill="#FF9591" cx="30" cy="61.6" r="1.7"/>
	<circle fill="#FF9591" cx="35" cy="56.6" r="1.7"/>
	<circle fill="#FF9591" cx="40" cy="61.6" r="1.7"/>
	<circle fill="#FF9591" cx="15" cy="66.6" r="1.7"/>
	<circle fill="#FF9591" cx="20" cy="71.6" r="1.7"/>
	<circle fill="#FF9591" cx="25" cy="66.6" r="1.7"/>
	<circle fill="#FF9591" cx="30" cy="71.6" r="1.7"/>
	<circle fill="#FF9591" cx="35" cy="66.6" r="1.7"/>
	<circle fill="#FF9591" cx="40" cy="71.6" r="1.7"/>
	<circle fill="#FF9591" cx="20" cy="81.6" r="1.7"/>
	<circle fill="#FF9591" cx="25" cy="76.6" r="1.7"/>
	<circle fill="#FF9591" cx="30" cy="81.6" r="1.7"/>
	<circle fill="#FF9591" cx="35" cy="76.6" r="1.7"/>
	<circle fill="#FF9591" cx="40" cy="81.6" r="1.7"/>
	<circle fill="#FF9591" cx="35" cy="86.6" r="1.7"/>
	<circle fill="#FF9591" cx="40" cy="91.6" r="1.7"/>
</g>
</svg>
