<?xml version="1.0" encoding="utf-8"?>
<!-- Generator: Adobe Illustrator 19.2.1, SVG Export Plug-In . SVG Version: 6.00 Build 0)  -->
<svg version="1.1" id="Capa_1" xmlns="http://www.w3.org/2000/svg" xmlns:xlink="http://www.w3.org/1999/xlink" x="0px" y="0px"
	 viewBox="0 0 100 100" enable-background="new 0 0 100 100" xml:space="preserve">
<g>
	<g>
		<path fill="#FF9591" d="M93.9,1.5h-11c-1,0-1.8,0.8-1.8,1.8H26.2c0-1-0.8-1.8-1.8-1.8h-9.2H6.1c-1,0-1.8,0.8-1.8,1.8v88.8
			c0,3.5,2.9,6.4,6.4,6.4c1.8,0,3.4-0.7,4.6-1.9c1.2,1.2,2.8,1.9,4.6,1.9c3.5,0,6.4-2.9,6.4-6.4v-6.4h54.9v5.5c0,4,3.3,7.3,7.3,7.3
			s7.3-3.3,7.3-7.3V3.3C95.8,2.3,94.9,1.5,93.9,1.5z M26.2,14.3h54.9v58.6H26.2V14.3z M81.1,7v3.7H26.2V7H81.1z M10.7,94.8
			c-1.5,0-2.7-1.2-2.7-2.7V5.2h5.5v86.9C13.4,93.6,12.2,94.8,10.7,94.8z M22.5,92.1c0,1.5-1.2,2.7-2.7,2.7c-1.5,0-2.7-1.2-2.7-2.7
			V5.2h5.5V7v5.5v62.2v9.2V92.1z M26.2,82v-5.5h54.9V82H26.2z M92.1,91.2c0,2-1.6,3.7-3.7,3.7s-3.7-1.6-3.7-3.7v-7.3v-9.2V12.5V7
			V5.2h7.3V91.2z"/>
		<path fill="#FF9591" d="M31.7,29c0.5,0,0.9-0.2,1.3-0.5l5.5-5.5c0.7-0.7,0.7-1.9,0-2.6s-1.9-0.7-2.6,0l-5.5,5.5
			c-0.7,0.7-0.7,1.9,0,2.6C30.8,28.8,31.2,29,31.7,29z"/>
		<path fill="#FF9591" d="M45,20.3L30.4,35c-0.7,0.7-0.7,1.9,0,2.6c0.4,0.4,0.8,0.5,1.3,0.5s0.9-0.2,1.3-0.5l14.6-14.6
			c0.7-0.7,0.7-1.9,0-2.6C46.9,19.6,45.8,19.6,45,20.3z"/>
	</g>
</g>
</svg>
