<?xml version="1.0" encoding="utf-8"?>
<!-- Generator: Adobe Illustrator 19.2.1, SVG Export Plug-In . SVG Version: 6.00 Build 0)  -->
<svg version="1.1" id="Capa_1" xmlns="http://www.w3.org/2000/svg" xmlns:xlink="http://www.w3.org/1999/xlink" x="0px" y="0px"
	 viewBox="0 0 100 100" enable-background="new 0 0 100 100" xml:space="preserve">
<g>
	<path fill="#8277EA" d="M100,75c0,2.2-0.6,4.2-1.6,6L66.8,45.7l31.2-27.3c1.2,1.9,1.9,4.2,1.9,6.6L100,75L100,75z M50,52.1l43.5-38
		c-1.8-1-3.8-1.6-6-1.6h-75c-2.2,0-4.2,0.6-6,1.6L50,52.1z M62.1,49.8l-10.1,8.8c-0.6,0.5-1.3,0.8-2.1,0.8c-0.7,0-1.5-0.3-2.1-0.8
		l-10.1-8.8l-32,35.8c1.9,1.2,4.2,1.9,6.6,1.9h75c2.4,0,4.7-0.7,6.6-1.9L62.1,49.8z M1.9,18.4C0.7,20.3,0,22.6,0,25v50
		c0,2.2,0.6,4.2,1.6,6l31.6-35.3L1.9,18.4z"/>
</g>
</svg>
