<?xml version="1.0" encoding="utf-8"?>
<!-- Generator: Adobe Illustrator 19.2.1, SVG Export Plug-In . SVG Version: 6.00 Build 0)  -->
<svg version="1.1" id="Layer_1" xmlns="http://www.w3.org/2000/svg" xmlns:xlink="http://www.w3.org/1999/xlink" x="0px" y="0px"
	 viewBox="0 0 100 100" enable-background="new 0 0 100 100" xml:space="preserve">
<circle fill="#FF9591" cx="22.7" cy="27.5" r="8"/>
<polygon fill="#666666" points="30.2,23.9 28.1,21.4 19.6,28.5 17.4,26.4 15.2,28.6 19.4,32.9 "/>
<rect x="35.6" y="22.6" fill="#666666" width="24.1" height="3.2"/>
<rect x="35.6" y="29.1" fill="#666666" width="27.4" height="3.2"/>
<polygon fill="#666666" points="30.2,40 28.1,37.5 19.6,44.6 17.4,42.4 15.2,44.7 19.4,49 "/>
<rect x="35.6" y="38.7" fill="#666666" width="33.8" height="3.2"/>
<rect x="35.6" y="45.2" fill="#666666" width="6.5" height="3.2"/>
<rect x="45.3" y="45.2" fill="#666666" width="24.1" height="3.2"/>
<polygon fill="#666666" points="30.2,56.1 28.1,53.6 19.6,60.7 17.4,58.5 15.2,60.8 19.4,65.1 "/>
<rect x="35.6" y="54.8" fill="#666666" width="33.8" height="3.2"/>
<rect x="35.6" y="61.3" fill="#666666" width="24.1" height="3.2"/>
<rect x="62.9" y="61.3" fill="#666666" width="6.5" height="3.2"/>
<rect x="62.9" y="22.6" fill="#666666" width="6.5" height="3.2"/>
<path fill="#666666" d="M95.1,74.1h-3.2h-3.2h-3.2h-3.2v-66c0-4.4-3.6-8-8-8h-66c-4.4,0-8,3.6-8,8s3.6,8,8,8v83.7h67.6v-9.6h6.5
	v-6.5h3.2h3.2h3.2h3.2c2.7,0,4.8-2.2,4.8-4.8C100,76.3,97.8,74.1,95.1,74.1z M79,8.2v66h-3.2V13h-1.6c-2.7,0-4.8-2.2-4.8-4.8
	s2.2-4.8,4.8-4.8C76.9,3.3,79,5.5,79,8.2z M3.4,8.2c0-2.7,2.2-4.8,4.8-4.8h59.5c-1,1.3-1.6,3-1.6,4.8s0.6,3.5,1.6,4.8H8.2
	C5.6,13,3.4,10.8,3.4,8.2z M11.5,96.7V16.2h61.1v57.9H27.3L12.8,79l14.5,4.8h45.3v12.9L11.5,96.7L11.5,96.7z M23,79l3-1v2L23,79z
	 M79,87h-3.2v-3.2H79V87z M82.3,80.6H29.2v-3.2h53.1V80.6L82.3,80.6z M88.7,80.6h-3.2v-3.2h3.2V80.6z M95.1,80.6h-3.2v-3.2h3.2
	c0.9,0,1.6,0.7,1.6,1.6S96,80.6,95.1,80.6z"/>
</svg>
