<?xml version="1.0" encoding="utf-8"?>
<!-- Generator: Adobe Illustrator 19.2.1, SVG Export Plug-In . SVG Version: 6.00 Build 0)  -->
<svg version="1.1" id="Capa_1" xmlns="http://www.w3.org/2000/svg" xmlns:xlink="http://www.w3.org/1999/xlink" x="0px" y="0px"
	 viewBox="0 0 100 100" enable-background="new 0 0 100 100" xml:space="preserve">
<path fill="#FF9591" d="M98.4,8.7c-0.7-0.7-1.7-0.7-2.4,0L63.2,41.5l-4.7-4.7L91.3,4c0.7-0.7,0.7-1.7,0-2.4c-0.7-0.7-1.7-0.7-2.4,0
	L56.1,34.4l-2.5-2.5c-1-1-2.3-1.5-3.6-1.5c-1.4,0-2.7,0.5-3.6,1.5l-1.2,1.2c-1.4,1.4-1.8,3.5-1.2,5.3C27.8,46.2,13.4,52.6,2.2,56.9
	c-0.9,0.3-1.3,1.3-1,2.1c3.1,9.2,8.4,17.6,15.3,24.5c6.8,6.8,15.3,12.1,24.5,15.3c0.2,0.1,0.4,0.1,0.6,0.1c0.7,0,1.3-0.4,1.6-1.1
	c4.3-11.2,10.7-25.5,18.5-41.7c0.5,0.2,1.1,0.3,1.7,0.3c1.4,0,2.7-0.5,3.6-1.5l1.2-1.2c2-2,2-5.3,0-7.2l-2.5-2.5l32.8-32.8
	C99,10.5,99,9.4,98.4,8.7z M46,41.3l1.3,1.3l-13.8,9.6c-0.8,0.5-1,1.6-0.4,2.4c0.3,0.5,0.9,0.7,1.4,0.7c0.3,0,0.7-0.1,1-0.3l14.3-10
	l1.4,1.4L17.7,79.9c-2.4-2.5-4.5-5.2-6.4-8.1l18.1-12.6c0.8-0.5,1-1.6,0.4-2.4c-0.5-0.8-1.6-1-2.4-0.4L9.5,68.9
	c-1.8-3-3.3-6.2-4.5-9.4C16.1,55.1,30.2,48.9,46,41.3z M40.5,95c-3.3-1.2-6.4-2.7-9.4-4.5l3.2-4.6c0.5-0.8,0.4-1.8-0.4-2.4
	C33.1,83,32,83.2,31.5,84l-3.3,4.7c-2.9-1.9-5.6-4-8.1-6.4l33.5-33.5l1.4,1.4l-19,27.3c-0.5,0.8-0.4,1.8,0.4,2.4
	c0.3,0.2,0.6,0.3,1,0.3c0.5,0,1.1-0.3,1.4-0.7l18.7-26.8l1.3,1.3C51.1,69.8,44.9,83.9,40.5,95z M65.6,51.3l-1.2,1.2
	c-0.3,0.3-0.7,0.5-1.2,0.5c-0.5,0-0.9-0.2-1.2-0.5l-7.2-7.2c0,0,0,0,0,0c0,0,0,0,0,0L47.5,38c-0.7-0.7-0.7-1.7,0-2.4l1.2-1.2
	c0.3-0.3,0.7-0.5,1.2-0.5c0.5,0,0.9,0.2,1.2,0.5l14.5,14.5C66.3,49.5,66.3,50.6,65.6,51.3z"/>
</svg>
