<?xml version="1.0" encoding="utf-8"?>
<!-- Generator: Adobe Illustrator 19.2.1, SVG Export Plug-In . SVG Version: 6.00 Build 0)  -->
<svg version="1.1" id="Capa_1" xmlns="http://www.w3.org/2000/svg" xmlns:xlink="http://www.w3.org/1999/xlink" x="0px" y="0px"
	 viewBox="0 0 100 100" enable-background="new 0 0 100 100" xml:space="preserve">
<g>
	<path fill="#8277EA" d="M50,0C22.4,0,0,22.4,0,50c0,27.6,22.4,50,50,50s50-22.4,50-50C100,22.4,77.6,0,50,0z M76.4,73l-4,4
		c-0.7,0.7-2.8,1.2-2.9,1.2c-12.7,0.1-24.9-4.9-33.8-13.8c-9-9-14-21.2-13.8-33.9c0,0,0.5-2,1.2-2.7l4-4c1.5-1.5,4.3-2.1,6.3-1.5
		l0.8,0.3c2,0.7,4,2.8,4.6,4.8l2,7.4c0.5,2-0.2,4.9-1.7,6.3l-2.7,2.7c2.6,9.7,10.2,17.3,20,20l2.7-2.7c1.5-1.5,4.3-2.2,6.3-1.7
		l7.4,2c2,0.6,4.2,2.6,4.8,4.6l0.3,0.9C78.5,68.7,77.9,71.5,76.4,73z"/>
</g>
</svg>
