<?xml version="1.0" encoding="utf-8"?>
<!-- Generator: Adobe Illustrator 19.2.1, SVG Export Plug-In . SVG Version: 6.00 Build 0)  -->
<svg version="1.1" id="Layer_1" xmlns="http://www.w3.org/2000/svg" xmlns:xlink="http://www.w3.org/1999/xlink" x="0px" y="0px"
	 viewBox="0 0 19 19" enable-background="new 0 0 19 19" xml:space="preserve">
<g>
	<g>
		<g>
			<path fill="#666666" d="M14.9,2.2C13.3,0.7,11.3-0.1,9.2,0c-3.9,0.1-7,3.1-7.4,7c-0.1,0.7,0,1.5,0.1,2.2c0,0,0,0.1,0.1,0.3
				c0.1,0.5,0.3,1,0.5,1.5c0.8,1.8,2.5,4.7,6.2,7.8C8.9,18.9,9.2,19,9.5,19s0.6-0.1,0.8-0.3c3.7-3.1,5.4-5.9,6.2-7.8
				c0.2-0.5,0.4-1,0.5-1.5c0-0.1,0.1-0.2,0.1-0.3c0.1-0.5,0.1-1,0.1-1.4C17.2,5.6,16.4,3.6,14.9,2.2z M15.7,8.9
				C15.7,8.9,15.7,8.9,15.7,8.9c0,0.1,0,0.1,0,0.2c0,0,0,0,0,0c-0.1,0.4-0.2,0.9-0.4,1.3c0,0,0,0,0,0c-0.7,1.7-2.3,4.3-5.7,7.2
				c-3.4-2.9-5-5.5-5.7-7.2c0,0,0,0,0,0C3.6,10,3.4,9.6,3.3,9.1c0,0,0,0,0,0c0-0.1,0-0.1,0-0.2c0,0,0,0,0,0C3.2,8.3,3.1,7.7,3.2,7.1
				C3.5,4,6.1,1.5,9.3,1.4C11,1.3,12.7,2,13.9,3.2s1.9,2.8,1.9,4.6C15.8,8.1,15.8,8.5,15.7,8.9z"/>
		</g>
	</g>
	<g>
		<g>
			<path fill="#666666" d="M9.5,3.7c-2.3,0-4.1,1.8-4.1,4.1s1.8,4.1,4.1,4.1c0.4,0,0.7-0.3,0.7-0.7s-0.3-0.7-0.7-0.7
				c-1.5,0-2.7-1.2-2.7-2.7S8,5.1,9.5,5.1s2.7,1.2,2.7,2.7c0,0.6-0.2,1.3-0.7,1.8c-0.3,0.3-0.2,0.7,0.1,1c0.3,0.3,0.7,0.2,1-0.1
				c0.6-0.7,1-1.7,1-2.7C13.6,5.5,11.8,3.7,9.5,3.7z"/>
		</g>
	</g>
</g>
</svg>
