<?xml version="1.0" encoding="utf-8"?>
<!-- Generator: Adobe Illustrator 19.2.1, SVG Export Plug-In . SVG Version: 6.00 Build 0)  -->
<svg version="1.1" id="Capa_1" xmlns="http://www.w3.org/2000/svg" xmlns:xlink="http://www.w3.org/1999/xlink" x="0px" y="0px"
	 viewBox="0 0 100 100" enable-background="new 0 0 100 100" xml:space="preserve">
<g>
	<path fill="#FF9591" d="M25.2,50c0-0.9-0.8-1.7-1.7-1.7H1.7C0.8,48.3,0,49.1,0,50s0.8,1.7,1.7,1.7h21.9
		C24.5,51.7,25.2,50.9,25.2,50z"/>
	<path fill="#FF9591" d="M98.3,48.3H76.5c-0.9,0-1.7,0.8-1.7,1.7s0.8,1.7,1.7,1.7h21.9c0.9,0,1.7-0.8,1.7-1.7S99.2,48.3,98.3,48.3z"
		/>
	<path fill="#FF9591" d="M62.9,73.6c-0.4-0.8-1.4-1.2-2.3-0.8c-0.8,0.4-1.2,1.4-0.8,2.3l4.5,9.6c0.3,0.6,0.9,1,1.5,1
		c0.2,0,0.5-0.1,0.7-0.2c0.8-0.4,1.2-1.4,0.8-2.3L62.9,73.6z"/>
	<path fill="#FF9591" d="M37.1,26.4c0.3,0.6,0.9,1,1.5,1c0.2,0,0.5-0.1,0.7-0.2c0.8-0.4,1.2-1.4,0.8-2.3l-4.5-9.6
		c-0.4-0.8-1.4-1.2-2.3-0.8c-0.8,0.4-1.2,1.4-0.8,2.3L37.1,26.4z"/>
	<path fill="#FF9591" d="M72.8,60.6c-0.4,0.8,0,1.9,0.8,2.3l9.6,4.5c0.2,0.1,0.5,0.2,0.7,0.2c0.6,0,1.3-0.4,1.5-1
		c0.4-0.8,0-1.9-0.8-2.3l-9.6-4.5C74.2,59.4,73.2,59.8,72.8,60.6z"/>
	<path fill="#FF9591" d="M27.2,39.4c0.4-0.8,0-1.9-0.8-2.3l-9.6-4.5c-0.8-0.4-1.9,0-2.3,0.8c-0.4,0.8,0,1.9,0.8,2.3l9.6,4.5
		c0.2,0.1,0.5,0.2,0.7,0.2C26.3,40.3,26.9,40,27.2,39.4z"/>
	<path fill="#FF9591" d="M39.4,72.8c-0.8-0.4-1.9,0-2.3,0.8l-4.5,9.6c-0.4,0.8,0,1.9,0.8,2.3c0.2,0.1,0.5,0.2,0.7,0.2
		c0.6,0,1.3-0.4,1.5-1l4.5-9.6C40.6,74.2,40.2,73.2,39.4,72.8z"/>
	<path fill="#FF9591" d="M60.6,27.2c0.2,0.1,0.5,0.2,0.7,0.2c0.6,0,1.3-0.4,1.5-1l4.5-9.6c0.4-0.8,0-1.9-0.8-2.3
		c-0.8-0.4-1.9,0-2.3,0.8l-4.5,9.6C59.4,25.8,59.8,26.8,60.6,27.2z"/>
	<path fill="#FF9591" d="M32.5,67.5c-0.7-0.7-1.7-0.7-2.4,0L14.6,83c-0.7,0.7-0.7,1.7,0,2.4c0.3,0.3,0.8,0.5,1.2,0.5
		c0.4,0,0.9-0.2,1.2-0.5l15.5-15.5C33.2,69.2,33.2,68.2,32.5,67.5z"/>
	<path fill="#FF9591" d="M67.5,32.5c0.3,0.3,0.8,0.5,1.2,0.5c0.4,0,0.9-0.2,1.2-0.5L85.4,17c0.7-0.7,0.7-1.7,0-2.4
		c-0.7-0.7-1.7-0.7-2.4,0L67.5,30.1C66.8,30.8,66.8,31.8,67.5,32.5z"/>
	<path fill="#FF9591" d="M30.1,32.5c0.3,0.3,0.8,0.5,1.2,0.5c0.4,0,0.9-0.2,1.2-0.5c0.7-0.7,0.7-1.7,0-2.4L17,14.6
		c-0.7-0.7-1.7-0.7-2.4,0s-0.7,1.7,0,2.4L30.1,32.5z"/>
	<path fill="#FF9591" d="M69.9,67.5c-0.7-0.7-1.7-0.7-2.4,0c-0.7,0.7-0.7,1.7,0,2.4L83,85.4c0.3,0.3,0.8,0.5,1.2,0.5
		c0.4,0,0.9-0.2,1.2-0.5c0.7-0.7,0.7-1.7,0-2.4L69.9,67.5z"/>
	<path fill="#FF9591" d="M50,30.5c-10.7,0-19.5,8.7-19.5,19.5c0,10.7,8.7,19.5,19.5,19.5c10.7,0,19.5-8.7,19.5-19.5
		S60.7,30.5,50,30.5z M50,66.1c-3.8,0-7.3-1.3-10.1-3.6c0,0,0,0,0,0c-0.2-0.2-0.4-0.4-0.6-0.5c0,0,0,0,0,0c-0.2-0.2-0.4-0.4-0.6-0.6
		c0,0,0,0,0,0c-0.2-0.2-0.4-0.4-0.6-0.6c0,0,0,0,0,0c-0.2-0.2-0.4-0.4-0.6-0.7c0,0,0-0.1-0.1-0.1c-0.2-0.2-0.3-0.4-0.4-0.6
		c0,0-0.1-0.1-0.1-0.1c-0.1-0.2-0.3-0.4-0.4-0.6c0,0-0.1-0.1-0.1-0.1c-0.1-0.2-0.2-0.4-0.4-0.6c0,0-0.1-0.1-0.1-0.1
		c-0.1-0.2-0.3-0.5-0.4-0.7c0,0,0,0,0,0c-0.3-0.5-0.5-1.1-0.7-1.6c0-0.1,0-0.1-0.1-0.2c-0.1-0.2-0.1-0.4-0.2-0.6
		c0-0.1-0.1-0.2-0.1-0.3c-0.1-0.2-0.1-0.4-0.1-0.6c0-0.1,0-0.2-0.1-0.3c0-0.2-0.1-0.4-0.1-0.5c0-0.1,0-0.2-0.1-0.3
		c0-0.2-0.1-0.4-0.1-0.5c0-0.1,0-0.2,0-0.3c0-0.2,0-0.4-0.1-0.6c0-0.1,0-0.2,0-0.3c0-0.3,0-0.6,0-0.9c0-8.9,7.2-16.1,16.1-16.1
		c0.3,0,0.6,0,0.9,0c0.1,0,0.2,0,0.3,0c0.2,0,0.4,0,0.6,0.1c0.1,0,0.2,0,0.3,0c0.2,0,0.4,0,0.5,0.1c0.1,0,0.2,0,0.3,0.1
		c0.2,0,0.4,0.1,0.5,0.1c0.1,0,0.2,0,0.3,0.1c0.2,0,0.4,0.1,0.6,0.1c0.1,0,0.2,0.1,0.3,0.1c0.2,0.1,0.4,0.1,0.6,0.2
		c0.1,0,0.1,0,0.2,0.1c0.5,0.2,1.1,0.4,1.6,0.7c0,0,0,0,0,0c0.2,0.1,0.5,0.2,0.7,0.4c0,0,0.1,0.1,0.1,0.1c0.2,0.1,0.4,0.2,0.6,0.4
		c0,0,0.1,0.1,0.1,0.1c0.2,0.1,0.4,0.3,0.6,0.4c0,0,0.1,0.1,0.1,0.1c0.2,0.1,0.4,0.3,0.6,0.4c0,0,0.1,0,0.1,0.1
		c0.2,0.2,0.4,0.4,0.7,0.6c0,0,0,0,0,0c0.2,0.2,0.4,0.4,0.6,0.6c0,0,0,0,0,0c0.2,0.2,0.4,0.4,0.6,0.6c0,0,0,0,0,0
		c0.2,0.2,0.4,0.4,0.5,0.6c0,0,0,0,0,0c2.2,2.8,3.6,6.3,3.6,10.1C66.1,58.9,58.9,66.1,50,66.1z"/>
	<path fill="#FF9591" d="M15.4,64.3c-0.8,0.4-1.2,1.4-0.8,2.3c0.3,0.6,0.9,1,1.5,1c0.2,0,0.5-0.1,0.7-0.2l9.6-4.5
		c0.8-0.4,1.2-1.4,0.8-2.3c-0.4-0.8-1.4-1.2-2.3-0.8L15.4,64.3z"/>
	<path fill="#FF9591" d="M84.6,35.7c0.8-0.4,1.2-1.4,0.8-2.3c-0.4-0.9-1.4-1.2-2.3-0.8l-9.6,4.5c-0.8,0.4-1.2,1.4-0.8,2.3
		c0.3,0.6,0.9,1,1.5,1c0.2,0,0.5-0.1,0.7-0.2L84.6,35.7z"/>
	<path fill="#FF9591" d="M50,75.9c-0.9,0-1.7,0.8-1.7,1.7v20.7c0,0.9,0.8,1.7,1.7,1.7s1.7-0.8,1.7-1.7V77.6
		C51.7,76.6,50.9,75.9,50,75.9z"/>
	<path fill="#FF9591" d="M50,24.1c0.9,0,1.7-0.8,1.7-1.7V1.7C51.7,0.8,50.9,0,50,0s-1.7,0.8-1.7,1.7v20.7
		C48.3,23.4,49.1,24.1,50,24.1z"/>
	<path fill="#FF9591" d="M41.8,41.4c-5,3.1-4.9,8.4-4.9,8.7c0,0.9,0.8,1.7,1.7,1.7c0,0,0,0,0,0c0.9,0,1.7-0.8,1.7-1.7
		c0,0,0-3.6,3.3-5.7c0.8-0.5,1-1.5,0.6-2.3C43.7,41.2,42.6,40.9,41.8,41.4z"/>
</g>
</svg>
