<?xml version="1.0" encoding="utf-8"?>
<!-- Generator: Adobe Illustrator 19.2.1, SVG Export Plug-In . SVG Version: 6.00 Build 0)  -->
<svg version="1.1" id="Layer_1" xmlns="http://www.w3.org/2000/svg" xmlns:xlink="http://www.w3.org/1999/xlink" x="0px" y="0px"
	 viewBox="0 0 100 100" enable-background="new 0 0 100 100" xml:space="preserve">
<path fill="#FF9591" d="M95.1,39.7H78.3c-1.4,0-2.7,0.7-3.6,1.7c-0.2-0.2-0.5-0.4-0.8-0.4c-0.6-0.2-16.5-4.8-16.5-18.5V5.3
	c0-1.1-0.7-2-1.7-2.3c-0.4-0.1-8.5-2.6-14.5,1.8c-3.8,2.7-5.7,7.4-5.7,13.9v15.4H14.1c-7.6,0-13.8,6.2-13.8,13.8c0,0.1,0,0.2,0,0.4
	l5.7,36.2c1.1,8.6,7,13.5,16.4,13.5h42.3c3.7,0,7-1.5,9.5-3.8c0.8,1.4,2.3,2.3,4,2.3h16.8c2.5,0,4.6-2.1,4.6-4.6V44.3
	C99.6,41.8,97.6,39.7,95.1,39.7z M73.7,45.8v38.3c0,4.9-4,8.9-8.9,8.9H22.4c-6.9,0-10.8-3.1-11.5-9.2c0,0,0-0.1,0-0.1l-5.7-36
	c0.1-4.8,4-8.7,8.9-8.7H38c1.4,0,2.5-1.1,2.5-2.5V18.6c0-4.8,1.2-8.2,3.7-10c2.6-1.9,6.3-1.7,8.4-1.4v15.3c0,17.4,19.3,23,20.1,23.2
	C72.9,45.9,73.3,45.9,73.7,45.8z M94.7,91.4H78.6V44.6h16.1V91.4z"/>
</svg>
