<?xml version="1.0" encoding="utf-8"?>
<!-- Generator: Adobe Illustrator 19.2.1, SVG Export Plug-In . SVG Version: 6.00 Build 0)  -->
<svg version="1.1" id="Layer_1" xmlns="http://www.w3.org/2000/svg" xmlns:xlink="http://www.w3.org/1999/xlink" x="0px" y="0px"
	 viewBox="0 0 100 100" enable-background="new 0 0 100 100" xml:space="preserve">
<g>
	<g>
		<path fill="#FF9591" d="M96.9,66.2H71.7H54.1l7.6-7.6l22.6-22.6c0.3-0.3,0.5-0.7,0.5-1.2c0-0.4-0.2-0.8-0.5-1.2L66,15.2
			c-0.3-0.3-0.7-0.5-1.2-0.5c-0.4,0-0.8,0.2-1.2,0.5L41,37.8l-7.6,7.6V27.8V2.6c0-0.9-0.7-1.6-1.6-1.6H5.7C4.8,1,4,1.7,4,2.6v25.2
			V53v18.4c-1.7,2.8-2.6,6.1-2.6,9.4c0,10,8.1,18.1,18.1,18.1c3.9,0,7.6-1.2,10.7-3.5h16.3h25.2h25.2c0.9,0,1.6-0.7,1.6-1.6V67.8
			C98.6,66.9,97.8,66.2,96.9,66.2z M64.8,18.6l16.1,16.1L65.4,50.3L49.3,34.1L64.8,18.6z M7.3,4.3h22.8v21.9H7.3V4.3z M7.3,29.5
			h22.8v19.2l-2.7,2.7H7.3V29.5z M7.3,54.7h16.8l-8.5,8.5c-3.1,0.7-6,2.2-8.4,4.4C7.3,67.5,7.3,54.7,7.3,54.7z M28.7,92.6
			c-2.6,2-5.8,3.1-9.1,3.1c-8.2,0-14.9-6.7-14.9-14.9c0-2.9,0.8-5.6,2.3-8c2.2-3.4,5.8-5.8,9.8-6.6h0c0.9-0.2,1.9-0.3,2.8-0.3
			c3.3,0,6.5,1.1,9.1,3.1c0.7,0.5,1.3,1.1,1.8,1.7c0,0,0,0,0,0c2.5,2.8,3.9,6.3,3.9,10.1c0,0.3,0,0.6,0,1c0,0,0,0,0,0
			C34.2,86.1,32.1,90,28.7,92.6z M44.9,92.3H33.7c2.2-2.7,3.6-6.1,3.9-9.6l5.6-5.6l1.7-1.7L44.9,92.3L44.9,92.3z M40.9,74.8
			l-3.4,3.4c-0.5-3.6-2.1-6.9-4.6-9.6c0,0,0,0,0,0c-0.7-0.7-1.4-1.4-2.2-2.1c-2.9-2.3-6.4-3.6-10-3.8l8.5-8.5l1.4,1.4L43.9,69
			l1.4,1.4L40.9,74.8z M46.2,66.7L32.9,53.4L31.5,52l1.4-1.4c0,0,0,0,0,0l10.4-10.4l3.7-3.7l16.1,16.1l-3.7,3.7L49,66.7c0,0,0,0,0,0
			l-1.4,1.4L46.2,66.7z M70.1,92.3H48.2V72.2l0.6-0.6c0,0,0,0,0,0l2.1-2.1h19.2L70.1,92.3L70.1,92.3z M95.3,92.3H73.4V69.4h21.9
			L95.3,92.3L95.3,92.3z"/>
	</g>
</g>
<g>
	<g>
		<path fill="#FF9591" d="M19.6,69.7c-6.2,0-11.2,5-11.2,11.2c0,6.2,5,11.2,11.2,11.2s11.2-5,11.2-11.2
			C30.8,74.7,25.8,69.7,19.6,69.7z M19.6,88.8c-4.4,0-7.9-3.6-7.9-7.9c0-4.4,3.6-7.9,7.9-7.9s7.9,3.6,7.9,7.9
			C27.5,85.2,24,88.8,19.6,88.8z"/>
	</g>
</g>
<g>
	<g>
		<path fill="#FF9591" d="M19.6,74.4c-0.9,0-1.6,0.7-1.6,1.6s0.7,1.6,1.6,1.6c1.7,0,3.2,1.4,3.2,3.2c0,0.9,0.7,1.6,1.6,1.6
			c0.9,0,1.6-0.7,1.6-1.6C26,77.3,23.1,74.4,19.6,74.4z"/>
	</g>
</g>
</svg>
