<?xml version="1.0" encoding="utf-8"?>
<!-- Generator: Adobe Illustrator 19.2.1, SVG Export Plug-In . SVG Version: 6.00 Build 0)  -->
<svg version="1.1" id="Layer_1" xmlns="http://www.w3.org/2000/svg" xmlns:xlink="http://www.w3.org/1999/xlink" x="0px" y="0px"
	 viewBox="0 0 100 100" enable-background="new 0 0 100 100" xml:space="preserve">
<g>
	<g>
		<g>
			<path fill="#FF9591" d="M79.3,0H56.5v3.2H50v11.3h6.5v3.2h9C64.1,21.2,60.5,28,53,29l-1.4,0.2v6l1.4,0.2c0.1,0,0.7,0.1,1.7,0.1
				c3.5,0,12-0.9,19.5-8.6v5.8c-4.7,1.4-8.1,5.7-8.1,10.8v8.1c0,7.1-4.5,9.5-9.6,12.3C51.2,66.8,45.2,70,45.2,79v9.7
				c0,6.2,5.1,11.3,11.3,11.3h30.6c6.2,0,11.3-5.1,11.3-11.3V43.5c0-5.7-4.2-10.4-9.7-11.2v-3.2c1.5-8.5,9.8-11.4,10.2-11.5l1.1-0.4
				V6.9L79.3,0z M56.5,11.3h-3.2V6.5h3.2V11.3z M54.8,32.3V32c9.2-2.1,13-11,14.1-14.2h5.3V22C67,31.3,58.2,32.3,54.8,32.3z
				 M95.2,43.5v45.2c0,4.4-3.6,8.1-8.1,8.1H56.5c-4.4,0-8.1-3.6-8.1-8.1V79c0-7.1,4.5-9.5,9.6-12.3c2.7-1.5,5.6-3,7.8-5.5h11.6v-3.2
				H68c0.8-1.8,1.3-3.9,1.3-6.5V50h8.1v-3.2h-8.1v-3.2c0-4.4,3.6-8.1,8.1-8.1h9.7C91.5,35.5,95.2,39.1,95.2,43.5z M96.8,15
				c-2.8,1.2-9.8,5.1-11.3,13.7l0,3.5h-8.1V14.5H59.7V3.2h19.1l18,6V15z"/>
			<rect x="85.5" y="90.3" fill="#FF9591" width="3.2" height="3.2"/>
			<rect x="79" y="90.3" fill="#FF9591" width="3.2" height="3.2"/>
			<rect x="72.6" y="90.3" fill="#FF9591" width="3.2" height="3.2"/>
			<rect x="54.8" y="90.3" fill="#FF9591" width="3.2" height="3.2"/>
			<rect x="19.4" y="8.1" fill="#FF9591" width="22.6" height="3.2"/>
			<rect x="6.5" y="8.1" fill="#FF9591" width="3.2" height="3.2"/>
			<rect x="12.9" y="8.1" fill="#FF9591" width="3.2" height="3.2"/>
			<rect y="8.1" fill="#FF9591" width="3.2" height="3.2"/>
			
				<rect x="28.4" y="21" transform="matrix(0.7071 -0.7071 0.7071 0.7071 -6.9911 28.2831)" fill="#FF9591" width="4.6" height="3.2"/>
			
				<rect x="33.1" y="-0.1" transform="matrix(0.3162 -0.9487 0.9487 0.3162 21.4172 34.5517)" fill="#FF9591" width="3.2" height="5.1"/>
			
				<rect x="23.5" y="25.8" transform="matrix(0.7071 -0.7071 0.7071 0.7071 -11.8299 26.2789)" fill="#FF9591" width="4.6" height="3.2"/>
			
				<rect x="11.1" y="21.8" transform="matrix(0.8944 -0.4472 0.4472 0.8944 -9.0971 8.2393)" fill="#FF9591" width="3.6" height="3.2"/>
			
				<rect x="33.2" y="16.1" transform="matrix(0.7071 -0.7071 0.7071 0.7071 -2.1528 30.2873)" fill="#FF9591" width="4.6" height="3.2"/>
			
				<rect x="17.6" y="18.5" transform="matrix(0.8944 -0.4472 0.4472 0.8944 -6.9733 10.7842)" fill="#FF9591" width="3.6" height="3.2"/>
			
				<rect x="24" y="15.3" transform="matrix(0.8944 -0.4472 0.4472 0.8944 -4.8494 13.3284)" fill="#FF9591" width="3.6" height="3.2"/>
		</g>
	</g>
</g>
</svg>
