<?xml version="1.0" encoding="utf-8"?>
<!-- Generator: Adobe Illustrator 19.2.1, SVG Export Plug-In . SVG Version: 6.00 Build 0)  -->
<svg version="1.1" id="Layer_1" xmlns="http://www.w3.org/2000/svg" xmlns:xlink="http://www.w3.org/1999/xlink" x="0px" y="0px"
	 viewBox="0 0 100 100" enable-background="new 0 0 100 100" xml:space="preserve">
<polygon fill="#FF9591" points="45.2,21.8 54.9,21.8 54.9,13.7 56.5,8.9 53.2,0.8 46.8,0.8 43.6,8.9 45.2,13.7 "/>
<path fill="#FF9591" d="M50,37.9c-1.7,0-3.4,0.4-4.9,1.1v24.7h9.7V39C53.4,38.3,51.8,37.9,50,37.9z"/>
<path fill="#666666" d="M100,46v-4.7l-0.5-0.5c-2.1-1.9-4.7-2.9-7.5-2.9c-3.7,0-7.2,1.8-9.3,4.9h-4.3L74.6,31l-8.2,2.7
	c-1.9-2-4.2-3.7-6.7-4.9v-8.6H40.3v8.6c-2.5,1.2-4.8,2.9-6.7,4.9L25.4,31l-3.8,11.7h-4.3c-2.1-3-5.6-4.9-9.3-4.9
	c-2.8,0-5.4,1-7.5,2.9L0,41.3V46h6.9L8,49.2l-1.1,3.2H0v4.7l0.5,0.5c2.1,1.9,4.7,2.9,7.5,2.9c3.7,0,7.2-1.8,9.3-4.9h11.1
	c0.4,1.5,1,3,1.8,4.3l-5.1,7l13.6,9.9v17.5c0,2.7,2.2,4.9,4.9,4.9h12.9c2.7,0,4.9-2.2,4.9-4.9V76.9L74.9,67l-5.1-7
	c0.8-1.4,1.3-2.9,1.8-4.3h11.1c2.1,3,5.6,4.9,9.3,4.9c2.8,0,5.4-1,7.5-2.9l0.5-0.5v-4.7h-6.9L92,49.2l1.1-3.2L100,46L100,46z
	 M27.7,52.4H15.5L15,53.2c-1.4,2.5-4.1,4-7,4c-1.7,0-3.4-0.6-4.8-1.6h6l2.1-6.5l-2.1-6.5h-6c1.4-1,3.1-1.6,4.8-1.6
	c2.9,0,5.5,1.5,7,4l0.5,0.8h5l-1.1,3.5l8.2,2.7c0,0.1,0,0.1,0,0.2C27.7,52.3,27.7,52.4,27.7,52.4z M38.7,68.5
	c-0.9,0-1.6-0.7-1.6-1.6s0.7-1.6,1.6-1.6h22.6c0.9,0,1.6,0.7,1.6,1.6s-0.7,1.6-1.6,1.6H38.7z M38.7,71.8v1.1L36.1,71
	C36.9,71.5,37.7,71.8,38.7,71.8z M56.5,96H43.6c-0.9,0-1.6-0.7-1.6-1.6V71.8h3.2v21h3.2v-21h3.2v21h3.2v-21h3.2v22.6
	C58.1,95.3,57.3,96,56.5,96z M61.3,71.8c1,0,1.8-0.3,2.6-0.8l-2.6,1.9V71.8z M70.4,66.3l-6.2,4.5c1.2-0.9,1.9-2.3,1.9-3.8
	c0-2.7-2.2-4.9-4.9-4.9H50H38.7c-2.7,0-4.9,2.2-4.9,4.9c0,1.6,0.8,3,1.9,3.8l-6.2-4.5l4.5-6.1l-0.6-0.9c-1-1.7-1.8-3.5-2.2-5.4
	l0-0.2c-0.1-0.4-0.2-0.9-0.3-1.3c-0.1-0.6-0.2-1.1-0.2-1.7l-0.1-1.1l-7.2-2.3l4-12.2l7.2,2.3l0.7-0.8c2-2.3,4.5-4.1,7.2-5.3l1-0.4
	v-7.5h12.9v7.5l1,0.4c2.8,1.1,5.3,3,7.2,5.3l0.7,0.8l7.2-2.3l4,12.3l-7.2,2.3l-0.1,1.1c0,0.6-0.1,1.1-0.2,1.6
	c-0.1,0.4-0.1,0.8-0.3,1.3l0,0.2c-0.5,1.9-1.2,3.7-2.2,5.4l-0.6,0.9L70.4,66.3z M90.8,55.6h6c-1.4,1-3.1,1.6-4.8,1.6
	c-2.9,0-5.5-1.5-7-4l-0.5-0.8H72.3c0,0,0-0.1,0-0.1c0-0.1,0-0.1,0-0.2l8.2-2.7L79.4,46h5l0.5-0.8c1.4-2.5,4.1-4,7-4
	c1.7,0,3.4,0.6,4.8,1.6h-6l-2.1,6.4L90.8,55.6z"/>
<path fill="#666666" d="M62.9,49.2c0-7.1-5.8-12.9-12.9-12.9s-12.9,5.8-12.9,12.9S42.9,62.1,50,62.1S62.9,56.3,62.9,49.2z M50,58.9
	c-2.9,0-5.4-1.2-7.2-3.2h2.3v-3.2h-4.3c-0.3-1-0.6-2.1-0.6-3.2c0-1.1,0.2-2.2,0.6-3.2h4.3v-3.2h-2.3c1.8-2,4.3-3.2,7.2-3.2
	s5.4,1.2,7.2,3.2h-2.3v3.2h4.3c0.3,1,0.6,2.1,0.6,3.2c0,1.1-0.2,2.2-0.6,3.2h-4.3v3.2h2.3C55.4,57.6,52.9,58.9,50,58.9z"/>
</svg>
