<?xml version="1.0" encoding="utf-8"?>
<!-- Generator: Adobe Illustrator 21.0.0, SVG Export Plug-In . SVG Version: 6.00 Build 0)  -->
<svg version="1.1" id="Layer_1" xmlns="http://www.w3.org/2000/svg" xmlns:xlink="http://www.w3.org/1999/xlink" x="0px" y="0px"
	 viewBox="0 0 62 61.9" style="enable-background:new 0 0 62 61.9;" xml:space="preserve">
<style type="text/css">
	.st0{fill:#FF9591;}
	.st1{fill:#666666;}
</style>
<path class="st0" d="M33.1,28.9h-0.4c-2.4,1.9-5.4,3-8.6,3c-3.3,0-6.2-1.1-8.6-3h-0.4h-10v16h38v-16H33.1L33.1,28.9z"/>
<path class="st1" d="M59.1,48.9h-1v-11H54l-1-10h-8.9v-9H39c0-0.3,0-0.7,0-1c0-4-1.6-7.7-4.2-10.4l0.7-0.7l1.8,1.8l1.4-1.4l-5-5
	l-1.4,1.4l1.8,1.8l-0.8,0.8C31,4.4,28.1,3.2,25,3V2h3V0h-8v2h3v1c-3.1,0.2-6,1.4-8.3,3.2l-0.8-0.8l1.8-1.8l-1.4-1.4l-5,5l1.4,1.4
	l1.8-1.8l0.7,0.7C10.6,10.2,9,13.9,9,17.9c0,0.3,0,0.7,0,1H4v30H3c-1.7,0-3,1.3-3,3s1.3,3,3,3h1h2h3c0,3.9,3.1,7,7,7s7-3.1,7-7h19
	c0,3.9,3.1,7,7,7s7-3.1,7-7h2h1c1.7,0,3-1.3,3-3S60.7,48.9,59.1,48.9z M51.2,29.9l0.8,8h-7.9v-8H51.2z M24.1,4.9c7.2,0,13,5.8,13,13
	s-5.8,13-13,13s-13-5.8-13-13C11.1,10.8,16.9,4.9,24.1,4.9z M4.1,52.9h-1c-0.6,0-1-0.4-1-1s0.4-1,1-1h1V52.9z M16.1,59.9
	c-2.8,0-5-2.2-5-5s2.2-5,5-5s5,2.2,5,5S18.8,59.9,16.1,59.9z M22.8,52.9c-0.9-2.9-3.5-5-6.7-5s-5.8,2.1-6.7,5H6.1v-4v-28h3.3
	c1.4,6.8,7.4,12,14.7,12s13.3-5.2,14.7-12h3.3v7v10v2v13H22.8L22.8,52.9z M49.1,59.9c-2.8,0-5-2.2-5-5s2.2-5,5-5s5,2.2,5,5
	S51.8,59.9,49.1,59.9z M56.1,52.9h-0.3c-0.9-2.9-3.5-5-6.7-5c-2,0-3.7,0.8-5,2.1V39.9h10.1h1.9v9V52.9L56.1,52.9z M59.1,52.9h-1v-2
	h1c0.6,0,1,0.4,1,1S59.6,52.9,59.1,52.9z"/>
<path class="st1" d="M16.1,51.9c-1.7,0-3,1.3-3,3s1.3,3,3,3s3-1.3,3-3C19.1,53.3,17.7,51.9,16.1,51.9z M16.1,55.9c-0.6,0-1-0.4-1-1
	s0.4-1,1-1s1,0.4,1,1C17.1,55.5,16.6,55.9,16.1,55.9z"/>
<path class="st1" d="M49.1,51.9c-1.7,0-3,1.3-3,3s1.3,3,3,3s3-1.3,3-3C52.1,53.3,50.7,51.9,49.1,51.9z M49.1,55.9c-0.6,0-1-0.4-1-1
	s0.4-1,1-1s1,0.4,1,1C50.1,55.5,49.6,55.9,49.1,55.9z"/>
<path class="st1" d="M21.1,18c0,1.7,1.3,3,3,3s3-1.3,3-3s-1.3-3-3-3c-0.2,0-0.3,0-0.5,0l-5.8-6.7l-1.5,1.3l5.5,6.4
	C21.4,16.5,21.1,17.2,21.1,18z M25.1,18c0,0.6-0.4,1-1,1s-1-0.4-1-1s0.4-1,1-1S25.1,17.4,25.1,18z"/>
<path class="st1" d="M23.2,28.9l0.2-2c-4.6-0.4-8.3-4.3-8.3-9c0-2.2,0.8-4.3,2.3-6l-1.5-1.3c-1.8,2-2.8,4.6-2.8,7.3
	C13.1,23.6,17.5,28.4,23.2,28.9z"/>
</svg>
